<?xml version="1.0" encoding="utf-8"?>
<!-- Generator: Adobe Illustrator 27.3.1, SVG Export Plug-In . SVG Version: 6.00 Build 0)  -->
<svg version="1.1" id="Layer_1" xmlns="http://www.w3.org/2000/svg" xmlns:xlink="http://www.w3.org/1999/xlink" x="0px" y="0px"
	 viewBox="0 0 71.7 42.6" style="enable-background:new 0 0 71.7 42.6;" xml:space="preserve">
<g>
	<g>
		<g>
			<path d="M2.1,36.4L5.9,28h1.2l3.8,8.4H9.7l-3.4-7.7h0.5l-3.4,7.7H2.1z M3.8,34.3l0.3-1h4.7l0.3,1H3.8z"/>
			<path d="M14.7,36.5c-0.5,0-1-0.1-1.4-0.3s-0.7-0.5-1-0.9S12,34.4,12,33.7v-3.7h1.2v3.5c0,0.6,0.1,1.1,0.4,1.4
				c0.3,0.3,0.7,0.5,1.3,0.5c0.4,0,0.7-0.1,1-0.2c0.3-0.2,0.5-0.4,0.7-0.7c0.2-0.3,0.2-0.7,0.2-1.1v-3.3H18v6.4h-1.1v-1.7l0.2,0.5
				c-0.2,0.4-0.5,0.8-0.9,1C15.7,36.4,15.2,36.5,14.7,36.5z"/>
			<path d="M19.2,31v-0.9h4.1V31H19.2z M22.3,36.5c-0.6,0-1.1-0.2-1.5-0.5c-0.4-0.3-0.5-0.8-0.5-1.5v-5.8h1.2v5.8
				c0,0.3,0.1,0.6,0.3,0.8c0.2,0.2,0.4,0.3,0.7,0.3c0.4,0,0.7-0.1,0.9-0.3l0.4,0.8c-0.2,0.2-0.4,0.3-0.6,0.3
				C22.9,36.5,22.6,36.5,22.3,36.5z"/>
			<path d="M28.5,30c0.5,0,1,0.1,1.4,0.3c0.4,0.2,0.7,0.5,0.9,0.9s0.3,0.9,0.3,1.5v3.7H30v-3.5c0-0.6-0.1-1.1-0.5-1.4
				c-0.3-0.3-0.7-0.5-1.3-0.5c-0.4,0-0.8,0.1-1.1,0.2s-0.5,0.4-0.7,0.7c-0.2,0.3-0.2,0.7-0.2,1.2v3.3h-1.2v-8.9h1.2v4.3L26,31.3
				c0.2-0.4,0.5-0.7,1-1C27.4,30.1,27.9,30,28.5,30z"/>
			<path d="M36,36.5c-0.6,0-1.2-0.1-1.7-0.4c-0.5-0.3-0.9-0.7-1.2-1.2s-0.4-1-0.4-1.7c0-0.6,0.1-1.2,0.4-1.7
				c0.3-0.5,0.7-0.9,1.2-1.1c0.5-0.3,1.1-0.4,1.7-0.4c0.6,0,1.2,0.1,1.7,0.4s0.9,0.7,1.2,1.1c0.3,0.5,0.4,1,0.4,1.7
				s-0.1,1.2-0.4,1.7c-0.3,0.5-0.7,0.9-1.2,1.2S36.7,36.5,36,36.5z M36,35.5c0.4,0,0.8-0.1,1.1-0.3c0.3-0.2,0.6-0.4,0.8-0.8
				c0.2-0.3,0.3-0.7,0.3-1.2c0-0.5-0.1-0.8-0.3-1.2c-0.2-0.3-0.4-0.6-0.8-0.8C36.8,31.1,36.4,31,36,31c-0.4,0-0.8,0.1-1.1,0.3
				c-0.3,0.2-0.6,0.4-0.8,0.8c-0.2,0.3-0.3,0.7-0.3,1.2c0,0.4,0.1,0.8,0.3,1.2c0.2,0.3,0.4,0.6,0.8,0.8C35.2,35.4,35.6,35.5,36,35.5
				z"/>
			<path d="M40.9,36.4v-6.4H42v1.7l-0.1-0.4c0.2-0.4,0.5-0.8,0.9-1c0.4-0.2,0.9-0.3,1.5-0.3v1.1c0,0-0.1,0-0.1,0s-0.1,0-0.1,0
				c-0.6,0-1.1,0.2-1.5,0.6c-0.4,0.4-0.5,0.9-0.5,1.6v3.2H40.9z"/>
			<path d="M46.4,28.9c-0.2,0-0.4-0.1-0.6-0.2c-0.1-0.1-0.2-0.3-0.2-0.5c0-0.2,0.1-0.4,0.2-0.5c0.1-0.1,0.3-0.2,0.6-0.2
				c0.2,0,0.4,0.1,0.6,0.2c0.1,0.1,0.2,0.3,0.2,0.5c0,0.2-0.1,0.4-0.2,0.5C46.8,28.8,46.6,28.9,46.4,28.9z M45.8,36.4v-6.4H47v6.4
				H45.8z"/>
			<path d="M48.6,36.4v-0.7l4.1-5.1l0.2,0.4h-4.2v-0.9h5.2v0.8l-4.1,5.1l-0.3-0.4h4.4v0.9H48.6z"/>
			<path d="M58.3,36.5c-0.7,0-1.3-0.1-1.8-0.4c-0.5-0.3-0.9-0.7-1.2-1.2c-0.3-0.5-0.4-1-0.4-1.7s0.1-1.2,0.4-1.7
				c0.3-0.5,0.7-0.9,1.1-1.1c0.5-0.3,1-0.4,1.6-0.4c0.6,0,1.2,0.1,1.6,0.4c0.5,0.3,0.8,0.7,1.1,1.1c0.3,0.5,0.4,1.1,0.4,1.7
				c0,0,0,0.1,0,0.2c0,0.1,0,0.1,0,0.2h-5.4v-0.8h4.8l-0.5,0.3c0-0.4-0.1-0.8-0.3-1.1c-0.2-0.3-0.4-0.6-0.7-0.7
				C58.8,31.1,58.4,31,58,31c-0.4,0-0.8,0.1-1.1,0.3c-0.3,0.2-0.6,0.4-0.7,0.8c-0.2,0.3-0.3,0.7-0.3,1.1v0.2c0,0.4,0.1,0.8,0.3,1.1
				c0.2,0.3,0.5,0.6,0.8,0.8c0.4,0.2,0.8,0.3,1.2,0.3c0.4,0,0.7-0.1,1-0.2c0.3-0.1,0.6-0.3,0.8-0.6l0.6,0.7
				c-0.3,0.3-0.6,0.6-1.1,0.8S58.8,36.5,58.3,36.5z"/>
			<path d="M65.4,36.5c-0.6,0-1.2-0.1-1.7-0.4c-0.5-0.3-0.9-0.7-1.1-1.1s-0.4-1.1-0.4-1.7c0-0.6,0.1-1.2,0.4-1.7
				c0.3-0.5,0.7-0.9,1.1-1.1c0.5-0.3,1-0.4,1.7-0.4c0.5,0,1,0.1,1.5,0.4s0.8,0.6,1,1.1c0.3,0.5,0.4,1.1,0.4,1.8s-0.1,1.3-0.4,1.8
				c-0.3,0.5-0.6,0.8-1,1.1S66,36.5,65.4,36.5z M65.5,35.5c0.4,0,0.8-0.1,1.1-0.3c0.3-0.2,0.6-0.4,0.8-0.8c0.2-0.3,0.3-0.7,0.3-1.2
				c0-0.5-0.1-0.8-0.3-1.2c-0.2-0.3-0.4-0.6-0.8-0.8c-0.3-0.2-0.7-0.3-1.1-0.3c-0.4,0-0.8,0.1-1.1,0.3c-0.3,0.2-0.6,0.4-0.8,0.8
				c-0.2,0.3-0.3,0.7-0.3,1.2c0,0.4,0.1,0.8,0.3,1.2c0.2,0.3,0.4,0.6,0.8,0.8C64.7,35.4,65.1,35.5,65.5,35.5z M67.7,36.4v-1.7
				l0.1-1.5l-0.1-1.5v-4.2h1.2v8.9H67.7z"/>
		</g>
	</g>
	<g>
		<path d="M27.5,19.4c0.1-0.1,0.2-0.1,0.2-0.2c0.7-0.5,1.4-0.9,2.1-1.4c0.1-0.1,0.3-0.1,0.5-0.2c0.3-0.1,0.6,0,0.6,0.4
			c0.1,0.3,0.1,0.5,0.1,0.8c0,0.7,0.1,0.8,0.8,0.7c0.9-0.1,1.8-0.5,2.6-0.9c1.2-0.6,2.5-1.3,3.6-2.1c0.4-0.3,0.9-0.6,1.5-0.6
			c0.4,0,0.8,0.5,0.7,0.9c-0.1-0.1-0.3-0.2-0.4-0.4c-0.2-0.2-0.4-0.2-0.6-0.1c-0.9,0.4-1.8,1-2.3,1.9c-0.1,0.1-0.1,0.2-0.1,0.4
			c0.2,0,0.4,0,0.5-0.1c0.4-0.2,0.8-0.4,1.2-0.5c0.4-0.2,0.8-0.4,1.3-0.7c0.2-0.1,0.3-0.1,0.5-0.2c0.3-0.1,0.4,0,0.4,0.3
			c-0.1,0.3-0.1,0.6-0.1,0.9c-0.1,0.5,0.2,0.9,0.7,0.9c0.4,0,0.9,0,1.3-0.1c1.2-0.3,2.4-0.8,3.6-1.3c0.9-0.4,1.7-0.8,2.6-1.3
			c0.2-0.1,0.4-0.2,0.4-0.5c0.3-2.1,0.6-4.2,1-6.2c0.4-2,0.8-3.9,1.4-5.8c0.1-0.3,0.3-0.6,0.4-0.9c0-0.1,0.2-0.1,0.2-0.1
			c0.1,0,0.2,0.1,0.2,0.2c0,0.2,0,0.4,0,0.6c0,0.1-0.1,0.3-0.1,0.4c-0.5,1-0.7,2-0.9,3.1c-0.5,2.5-0.9,4.9-1.3,7.4
			c-0.1,0.4-0.1,0.7-0.2,1.1c0,0.1,0,0.1,0,0.2c0.2-0.1,0.4-0.2,0.6-0.3c0.1,0,0.2,0,0.2,0c0,0.1-0.1,0.2-0.1,0.2
			c0,0-0.1,0.1-0.2,0.1c-0.6,0.2-0.7,0.7-0.8,1.2c-0.1,1.2-0.3,2.5-0.4,3.7c-0.1,1.3-0.2,2.6-0.1,3.9c0,0.2,0,0.4,0.1,0.6
			c-0.3,0-0.3-0.2-0.4-0.4c-0.1-0.5-0.2-0.9-0.2-1.4c0-1.3,0.1-2.6,0.2-3.9c0.1-1,0.2-1.9,0.3-2.9c0,0,0,0,0-0.1
			c-0.3,0.2-0.6,0.3-0.9,0.5c-1.4,0.7-2.8,1.4-4.3,1.9c-0.7,0.3-1.4,0.5-2.2,0.6c-0.2,0-0.5,0-0.7-0.1c-0.6-0.2-0.9-0.7-0.9-1.4
			c0-0.2,0-0.3,0-0.5c0-0.2-0.1-0.2-0.2-0.2c-0.1,0-0.2,0.1-0.3,0.1c-0.6,0.3-1.2,0.7-1.8,1c-0.2,0.1-0.5,0.2-0.7,0.2
			c-0.4,0-0.5-0.2-0.4-0.6c0-0.2,0.1-0.3,0.1-0.5c-0.2,0.1-0.4,0.2-0.6,0.4c-0.8,0.5-1.7,1-2.6,1.3c-0.5,0.2-1.1,0.3-1.6,0.4
			c-0.8,0.1-1.2-0.3-1.3-1.1c0-0.1,0-0.2,0-0.3c0-0.3-0.1-0.4-0.4-0.2c-0.3,0.1-0.5,0.2-0.7,0.4c-0.6,0.4-1.2,0.8-1.8,1.2
			c-0.1,0.1-0.3,0.2-0.4,0.1c-0.1-0.1-0.2-0.3-0.2-0.4c0-0.5,0.1-1,0.1-1.4c0.2-1.3,0.3-2.5,0.5-3.8c0.3-1.8,0.6-3.7,1-5.5
			c0.2-1.1,0.5-2.2,0.8-3.3c0.1-0.4,0.3-0.8,0.4-1.1c0.1-0.1,0.2-0.3,0.3-0.4C30.1,4,30.2,4,30.3,4.2c0.1,0.3,0.1,0.6,0,0.9
			c-0.7,1.4-0.9,2.9-1.2,4.4c-0.3,1.6-0.6,3.2-0.9,4.8c-0.2,1.4-0.4,2.8-0.6,4.2C27.6,18.9,27.5,19.1,27.5,19.4z"/>
		<path d="M25.2,19.5c-0.1,0.1-0.2,0.2-0.3,0.2c-0.6,0.3-1.3,0.6-1.9,0.8c-2.2,0.7-4.4,1.1-6.6,1.3c-1.3,0.1-2.6,0.1-3.9,0
			c-0.4,0-0.8-0.1-1.2-0.2c-0.2,0-0.2,0-0.2,0.2c-0.2,1.5-0.5,2.9-0.7,4.4c0,0.1-0.1,0.2-0.2,0.3c0,0.1-0.2,0-0.2,0.1
			c0-0.1-0.1-0.2,0-0.2c0.1-0.6,0.3-1.2,0.4-1.8c0.2-1,0.4-2,0.5-3c-0.2-0.1-0.4-0.1-0.6-0.2c-0.2-0.1-0.4-0.2-0.6-0.3
			c-0.3-0.2-0.4-0.5-0.4-0.8c0.1-0.8,0.4-1.5,0.8-2.2c0.4-0.6,0.8-1.2,1.2-1.8c0.2-0.3,0.4-0.6,0.4-1c0.1-1.3,0.3-2.6,0.5-3.9
			c0.1-1.1,0.3-2.2,0.4-3.4c0.2-1.6,0.4-3.1,0.6-4.7c0-0.1,0-0.2,0.1-0.3c0-0.1,0.1-0.3,0.2-0.3c0.1,0,0.3,0.1,0.4,0.2
			c0.1,0.1,0.1,0.3,0.1,0.5c-0.1,0.5-0.1,1-0.2,1.5c-0.3,2.1-0.6,4.2-0.9,6.3c-0.2,1.2-0.3,2.4-0.5,3.6c0,0.1,0,0.2,0,0.3
			c4.7-5,9.8-9.5,15.8-12.9c-0.1,0.4-0.3,0.7-0.6,0.9c-0.8,0.6-1.6,1.2-2.4,1.8c-3.5,2.6-6.8,5.2-9.9,8.2c-1.1,1-2,2.2-3,3.3
			c-0.1,0.1-0.2,0.3-0.2,0.4c-0.2,1.4-0.4,2.8-0.6,4.1c0,0.2,0.1,0.2,0.3,0.2c0.9,0,1.8,0.1,2.7,0.1c1.8,0,3.6-0.2,5.4-0.5
			c1.4-0.2,2.8-0.4,4.1-0.9c0.4-0.1,0.9-0.3,1.3-0.5C25,19.4,25.1,19.4,25.2,19.5C25.2,19.4,25.2,19.4,25.2,19.5z M11.3,17.4
			c-0.7,0.8-1.2,1.6-1.6,2.6c0,0.1-0.1,0.2-0.1,0.4c-0.1,0.2,0,0.4,0.2,0.5c0.2,0.1,0.4,0.1,0.7,0.2c0.2,0.1,0.3,0,0.3-0.2
			c0.1-0.7,0.2-1.4,0.3-2.1C11.2,18.3,11.2,17.8,11.3,17.4z"/>
		<path d="M59.2,16.5c-0.3,0.1-0.6,0.2-0.8,0.4c-1.6,0.7-3.1,1.3-4.8,1.8c-0.2,0.1-0.5,0.1-0.8,0.1c-0.4,0-0.7-0.2-0.7-0.7
			c0-0.5,0.1-1,0.1-1.5c0-0.1,0-0.3,0.1-0.4c0.1-0.2,0.2-0.3,0.4-0.4c0.1-0.1,0.2,0,0.3,0c0,0.1,0,0.2,0,0.3c-0.1,0.5-0.3,1-0.4,1.5
			c0,0.1,0,0.2,0,0.2c0,0.5,0.1,0.6,0.6,0.5c0.8-0.2,1.6-0.4,2.4-0.7c1.2-0.4,2.3-0.9,3.5-1.4c0.2-0.1,0.2-0.2,0.3-0.3
			c0.4-3.2,1-6.4,1.7-9.5c0.2-1,0.5-1.9,0.8-2.9C62,3.2,62.1,3,62.2,2.9c0.1-0.2,0.3-0.1,0.3,0.1c0,0.2,0.1,0.4,0,0.6
			c0,0.1-0.1,0.3-0.1,0.4c-0.5,0.9-0.7,1.9-0.9,2.9c-0.6,2.7-1.1,5.3-1.4,8c0,0.3-0.1,0.6-0.2,0.9c0.1,0,0.2,0,0.3-0.1
			c0.2-0.1,0.3-0.2,0.5-0.2c0.1,0,0.2,0,0.3,0c-0.1,0.1-0.1,0.2-0.2,0.2c-0.2,0.1-0.5,0.2-0.7,0.3c-0.1,0.1-0.2,0.2-0.2,0.3
			c-0.2,1.1-0.3,2.3-0.4,3.4c-0.1,1.3-0.2,2.6-0.2,3.9c0,0.4,0.1,0.8,0.1,1.2c0,0.1,0,0.2,0,0.3c-0.2,0-0.3-0.2-0.4-0.3
			c-0.1-0.5-0.2-0.9-0.2-1.4c0-1.3,0.1-2.6,0.2-3.9C59,18.6,59.2,17.6,59.2,16.5C59.3,16.6,59.2,16.6,59.2,16.5z"/>
		<path d="M53.2,13.3c0-0.1,0-0.2,0-0.3c0.1-0.1,0.2-0.3,0.3-0.4c0,0,0.2,0.1,0.3,0.2c0.1,0.1,0.2,0.3,0.1,0.5c0,0,0,0.1-0.1,0.1
			c-0.1,0.1-0.3,0.2-0.4,0.3C53.4,13.6,53.3,13.4,53.2,13.3z"/>
	</g>
</g>
</svg>
