<?xml version="1.0" encoding="utf-8"?>
<!-- Generator: Adobe Illustrator 27.3.1, SVG Export Plug-In . SVG Version: 6.00 Build 0)  -->
<svg version="1.1" id="Layer_1" xmlns="http://www.w3.org/2000/svg" xmlns:xlink="http://www.w3.org/1999/xlink" x="0px" y="0px"
	 viewBox="0 0 2000 1580.1" style="enable-background:new 0 0 2000 1580.1;" xml:space="preserve">
<style type="text/css">
	.st0{fill:none;stroke:#DEEEF8;stroke-width:5;stroke-miterlimit:10;}
	.st1{fill:none;stroke:#DEEEF8;stroke-width:3.75;stroke-miterlimit:10;}
	.st2{fill:#FBB143;}
	.st3{fill:#6F2A28;}
	.st4{opacity:0.3;fill:#6F2A28;enable-background:new    ;}
	.st5{opacity:0.6;fill:#FFFFFF;enable-background:new    ;}
	.st6{opacity:0.1;fill:#6F2A28;enable-background:new    ;}
	.st7{opacity:0.3;}
	.st8{fill:#103448;}
	.st9{fill:#E27B6D;}
	.st10{fill:#F9A384;}
	.st11{fill:#FC7980;}
	.st12{fill:#70AFD5;}
	.st13{fill:#005588;}
	.st14{fill:#ACD6EE;}
	.st15{opacity:0.15;fill:#103448;enable-background:new    ;}
	.st16{opacity:0.2;fill:#ACD6EE;enable-background:new    ;}
	.st17{fill:#DEEEF8;}
</style>
<g>
	<g>
		<path class="st0" d="M794.4,1077.7H572.9c-5.5,0-9.9-4.4-9.9-9.9v-20.9c0-5.5,4.4-9.9,9.9-9.9h221.5c5.5,0,9.9,4.4,9.9,9.9v20.9
			C804.3,1073.3,799.9,1077.7,794.4,1077.7z"/>
		<path class="st1" d="M926.4,1077.3h-90.2c-6.9,0-12.4-5.6-12.4-12.4V1049c0-6.9,5.6-12.4,12.4-12.4h90.2c6.9,0,12.4,5.6,12.4,12.4
			v15.9C938.8,1071.7,933.3,1077.3,926.4,1077.3z"/>
		<path class="st0" d="M871.3,526.9h-90.2c-6.9,0-12.4-5.6-12.4-12.4v-15.9c0-6.9,5.6-12.4,12.4-12.4h90.2c6.9,0,12.4,5.6,12.4,12.4
			v15.9C883.8,521.4,878.2,526.9,871.3,526.9z"/>
		<path class="st0" d="M1007.4,526.9h-90.2c-6.9,0-12.4-5.6-12.4-12.4v-15.9c0-6.9,5.6-12.4,12.4-12.4h90.2
			c6.9,0,12.4,5.6,12.4,12.4v15.9C1019.8,521.4,1014.2,526.9,1007.4,526.9z"/>
		<path class="st0" d="M1352.8,893.5h-90.2c-6.9,0-12.4-5.6-12.4-12.4v-15.9c0-6.9,5.6-12.4,12.4-12.4h90.2
			c6.9,0,12.4,5.6,12.4,12.4v15.9C1365.3,887.9,1359.7,893.5,1352.8,893.5z"/>
	</g>
	<g>
		<path class="st2" d="M1784.6,345.1v11.7c3.9,0,8.4,1.1,11.3,9c3.3,8.7,3.4,22.5,0.4,38.7c-3.4,18.3-10.6,39.4-20.8,61.1
			c-21.2,44.6-54.1,89.2-94,127.5l-5.9-130.4l34.8-48.2h29.3c11.2,0,20.2-9.1,20.2-20.2v-27.5c0.2-0.3,0.9-1.2,3.1-2.5
			c10.7-6.2,17.6-7.5,21.4-7.5v-11.7 M1784.6,345.1c-7.5,0-16.6,2.9-27.3,9.1c-4.9,2.9-9,6.9-9,12.5v27.6c0,4.7-3.8,8.5-8.5,8.5
			h-35.3l-40.7,56.4l7.2,159.6C1807.6,500.1,1839.8,345.1,1784.6,345.1L1784.6,345.1z"/>
		<path class="st2" d="M1363.8,345.1v11.7c3.9,0,10.8,1.3,21.4,7.5c2.2,1.3,3,2.2,3.1,2.5v27.5c0,11.2,9.1,20.2,20.2,20.2h29.3
			l34.8,48.2l-5.9,130.4c-39.9-38.3-72.8-82.9-94-127.5c-10.3-21.7-17.5-42.8-20.8-61.1c-3-16.3-2.8-30,0.4-38.7c3-7.9,7.4-9,11.3-9
			v-11.7 M1363.8,345.1c-55.2,0-23.1,155,113.7,273.7l7.2-159.6l-40.7-56.4h-35.3c-4.7,0-8.5-3.8-8.5-8.5v-27.6
			c0-5.7-4.1-9.7-9-12.5C1380.4,347.9,1371.3,345.1,1363.8,345.1L1363.8,345.1z"/>
		<rect x="1459.1" y="901.9" class="st3" width="230.2" height="119.4"/>
		<path class="st2" d="M1654,901.9h-159.7v-39c0-17.4,14.1-31.5,31.5-31.5h96.7c17.4,0,31.5,14.1,31.5,31.5V901.9z"/>
		<path class="st2" d="M1623.9,831.4h-99.4v-24.3c0-10.8,8.8-19.6,19.6-19.6h60.2c10.8,0,19.6,8.8,19.6,19.6L1623.9,831.4
			L1623.9,831.4z"/>
		<path class="st2" d="M1601.9,775.2l3.1,12.3h-61.7l3.1-12.3c4.1-16.3,4.1-32.7,0-49l-3.1-12.3h61.7l-3.1,12.3
			c-1.3,5.4-2.2,10.8-2.7,16.2C1598.2,753.3,1599.2,764.3,1601.9,775.2z"/>
		<path class="st4" d="M1605,714l-3.1,12.3c-1.3,5.4-2.2,10.8-2.7,16.2c-3.4-22.5-55.8-28.4-55.8-28.4L1605,714L1605,714z"/>
		<path class="st2" d="M1623.9,670.1v24.2c0,2-0.3,3.9-0.8,5.8c-2.4,8-9.9,13.9-18.8,13.9h-60.2c-10.8,0-19.6-8.8-19.6-19.6v-24.2
			h99.4V670.1z"/>
		<path class="st4" d="M1623.9,670.1v24.2c0,2-0.3,3.9-0.8,5.8c-26.6-24.4-94-25.1-98.6-25.2v-4.8H1623.9z"/>
		<path class="st2" d="M1728.6,377l-28.5,124.5l-31.6,138.1c-4.7,20.7-23.1,35.3-44.3,35.3h-99.9c-21.1,0-39.4-14.5-44.3-35.1
			c0-0.1,0-0.1-0.1-0.2L1419.7,377c-1.2-5.3,2.2-10.7,7.6-11.8c97.9-19.3,195.8-19.3,293.7,0C1726.4,366.3,1729.8,371.7,1728.6,377z
			"/>
		<path class="st5" d="M1508.7,452c2.2,17.9-1.4,33.1-8,33.9s-13.7-13.1-15.9-31c-2.2-17.9,1.4-33.1,8-33.9
			C1499.3,420.2,1506.5,434.1,1508.7,452z"/>
		<path class="st6" d="M1700.1,501.5l-31.6,138.1c-4.7,20.7-23.1,35.3-44.3,35.3h-99.9c-21.1,0-39.4-14.5-44.3-35.1
			C1589.8,632.9,1662.8,563.2,1700.1,501.5z"/>
		<g class="st7">
			<path class="st3" d="M1543.3,787.5c5.1-1.3,10.2-2,15.3-2.6c5.1-0.6,10.3-0.8,15.5-0.9c10.3,0,20.8,0.7,30.8,3.4
				c-5.2,0.1-10.3,0.1-15.4,0.2l-15.4,0.1C1564,787.9,1553.7,788,1543.3,787.5z"/>
		</g>
		<g class="st7">
			<path class="st3" d="M1524.5,831.4c16.5-2.2,33.1-3.1,49.7-3.4c8.3-0.1,16.6,0,24.9,0.5c8.3,0.4,16.6,1.2,24.8,2.9
				c-8.3-0.3-16.6-0.1-24.9,0l-24.8,0.4C1557.6,831.9,1541.1,832.1,1524.5,831.4z"/>
		</g>
		<g>
			<path class="st2" d="M1529.5,178.6l10.3,74.1c0.6,4.3-5.2,6.3-7.3,2.5l-37.4-64.8c-2.3-4-0.4-9,4-10.5l20.9-7.2
				C1524.2,171.3,1528.8,174.1,1529.5,178.6z"/>
			<path class="st2" d="M1632.9,134.3l-40.5,127.2c-2.3,7.4-13.1,6.1-13.7-1.6l-10.3-133.1c-0.6-8.2,6.3-14.8,14.5-13.9l39.1,4.5
				C1630.1,118.4,1635.4,126.5,1632.9,134.3z"/>
			<path class="st2" d="M1680.1,212.2l-48.3,46.1c-2.8,2.7-7.2-0.5-5.6-4l27.4-60.8c1.7-3.7,6.3-5,9.7-2.6l16.1,11.4
				C1682.7,204.6,1683.1,209.4,1680.1,212.2z"/>
		</g>
	</g>
	<g>
		<g>
			<path class="st8" d="M594,588.3c21.7,13.5,44.7-4,47.2-18.8c3.8-22.1-16.4-47.5-47.2-28.6c0,0-26.7-31.2-52.7-0.3
				c0,0-44.3,22.3-19.7,61c24.5,38.6,55.4-14,55.4-14L594,588.3z"/>
			<path class="st9" d="M609.7,598c11.9,15.9,17.1,22.2,15.4,27.2c-1.7,5-13.5,5.4-13.5,5.4L609.7,598z"/>
			<polygon class="st10" points="591.3,647.3 584.5,664.3 558.2,730 515.8,679.8 555.8,620.6 579.7,638.6 			"/>
			<path class="st8" d="M591.3,647.3l-6.8,17c-9.3-9.2-18.3-21.2-22-26.5l17.2,0.8L591.3,647.3z"/>
			<path class="st10" d="M615.9,638.7c-0.4,9-2.2,15.9-6.5,19c-12.6,8.9-58.8-29-58.8-29l-3.2-53.4l64.9,4.6
				c0.1,8.6,1,18.2,1.9,27.8C615.3,618.8,616.3,629.8,615.9,638.7z"/>
			<path class="st8" d="M553.5,601.5c15.9,3,20-14.6,20-14.6c17-10.4,31.1,13.6,46.4,4.7l2.4-30.7l-67.3-3.4l-24.3,15.6l6.9,18.8
				L553.5,601.5z"/>
			<path class="st10" d="M563.5,601.9c-8.5-9.7-22.4-5.6-23.7,4.9s7.3,28,21.3,17.8L563.5,601.9z"/>
			<path class="st11" d="M615.9,638.7c-1.3,0.4-2.8,0.6-4.3,0.6c-8.8,0-16-7.2-16-16s7.2-16,16-16c0.9,0,1.8,0.1,2.7,0.2
				C615.3,618.8,616.3,629.8,615.9,638.7z"/>
			<path class="st8" d="M557.6,608.8c-0.5-1.1-1.4-2.1-2.4-2.8s-2.1-1.4-3.3-1.7s-2.3-0.4-3.4,0.1c-1,0.4-1.9,1.4-2.6,2.5l-0.7-0.3
				c0.3-1.4,1.2-2.8,2.6-3.6c1.4-0.8,3.2-0.8,4.6-0.4c1.5,0.5,2.8,1.2,3.8,2.3c1,1,1.9,2.4,2,3.9H557.6z"/>
		</g>
		<g>
			<path class="st10" d="M619.9,770.1c14-16.3,15.4-39.6,20.7-44.4c9.9-8.9,5.4,18.3,5.4,18.3s6.4-18.3,21.9-22.5
				c10.1-2.7,11.9,6.7,11.1,14.6c-1.5,13.1-5.8,28.1-16.3,36.8c-4.5,3.7-10.3,6.5-13.5,11.5c-1.8,2.8-3.4,6.1-4.3,9.3L619.9,770.1z"
				/>
			<polygon class="st12" points="617.6,770.6 624.1,761.8 650.7,785.4 643.3,796.1 			"/>
			<path class="st8" d="M533.8,857.1l84.4-94l31.3,30.7c-22.4,50.9-52.1,83.6-99.6,108.6L533.8,857.1z"/>
			<path class="st9" d="M653.8,743.2c1.7-0.3,3.3,0.1,4.8,0.5c1.5,0.5,2.9,1.2,4.2,1.9c1.3,0.8,2.6,1.7,3.8,2.7c1.2,1.1,2.3,2,3,3.8
				l-0.9,0.3c-0.8-0.8-2.3-1.6-3.4-2.4c-1.2-0.8-2.5-1.5-3.7-2.3c-1.2-0.7-2.5-1.4-3.8-2.1c-1.3-0.6-2.6-1.2-3.9-1.5L653.8,743.2z"
				/>
			<path class="st9" d="M645.8,748.9c1.7,0.7,3.4,1.6,4.6,3.3c1.2,1.6,1.7,3.8,1.4,5.8c-0.2,2-1,3.8-2.1,5.3s-2.5,2.9-4.5,3.5
				l-0.3-0.9c1.2-0.9,2.2-2.4,2.9-3.8c0.8-1.4,1.3-3,1.5-4.5s0-3-0.7-4.3c-0.7-1.4-2-2.4-3.3-3.6L645.8,748.9z"/>
		</g>
		<path class="st12" d="M353.5,857.1l-89.8-24.5l0,0c1.8-6.7,8.7-10.6,15.3-8.8l65.7,17.9C351.3,843.5,355.3,850.4,353.5,857.1
			L353.5,857.1z"/>
		<g>
			<path class="st13" d="M318.8,1348.1c0,0,18.4,39.1,71.2,26.5l-25.5-33.8L318.8,1348.1z"/>
			<g>
				<polygon class="st10" points="336.7,1343.3 317.9,1385.6 338.4,1418 363.8,1397.3 375,1350.7 				"/>
			</g>
			<g>
				<g>
					<path class="st13" d="M317.9,1385.6l45.9,11.7l26.1,64.5c2.4,6-3.8,11.9-9.7,9.1l-81.5-39.4c-5.9-2.9-8.4-9.9-5.7-15.9l0.7-1.6
						C298.9,1402.5,307.3,1392.6,317.9,1385.6L317.9,1385.6z"/>
				</g>
				<g>
					<path class="st13" d="M317.9,1385.6l45.9,11.7l26.1,64.5c2.4,6-3.8,11.9-9.7,9.1l-81.5-39.4c-5.9-2.9-8.4-9.9-5.7-15.9l0.7-1.6
						C298.9,1402.5,307.3,1392.6,317.9,1385.6L317.9,1385.6z"/>
				</g>
			</g>
			<g>
				
					<rect x="360.5" y="1421.4" transform="matrix(0.8724 -0.4888 0.4888 0.8724 -648.5627 360.9235)" class="st14" width="13" height="2.5"/>
				
					<rect x="366.2" y="1435.6" transform="matrix(0.8719 -0.4897 0.4897 0.8719 -655.8954 366.586)" class="st14" width="13" height="2.5"/>
			</g>
			<path class="st8" d="M379.9,911.8c-8.9,20.9-20.9,53.1-0.7,91.7c8.2,15.7,11,33.7,7,51l-67.4,293.6l71.2,26.5l145.7-425.1
				L379.9,911.8z"/>
		</g>
		<g>
			<path class="st12" d="M570.5,700.4c14.4,41.3,14.8,111.9-12.5,186.3l-42.2,12l17-137.9L570.5,700.4z"/>
			<path class="st12" d="M524.2,664.9l11.6-25.6c0,0,32.7,22.8,49.9,50l-20,37.7L524.2,664.9z"/>
		</g>
		<path class="st13" d="M532.7,881.2c-112-3.6-170.7,59.2-170.3,56.8c18-61.2,35-106.9,50.2-141c27.5-61.9,49.2-85.8,60.5-94.8
			c5.5-4.4,8.5-5.3,8.5-5.3l51-42.7c4.4,2.3,8.6,5.5,12.4,9.1c14.4,13.5,22.6,32.2,24.5,51.8C577.2,791.7,532.7,881.2,532.7,881.2z"
			/>
		<path class="st8" d="M500.3,704.5c-16.4,8.7-44.8,54-87.7,92.4c27.5-61.9,49.2-85.8,60.5-94.8L500.3,704.5z"/>
		<g>
			<path class="st10" d="M316.1,799.7l-18,25.6c0,0-2.2,10.5-7.1,14.6c0,0,2.2,10.7,10.6,14.5c9.6,4.3,21.5,4.1,29.2-6.9
				s8.7-43.6,8.7-43.6L316.1,799.7z"/>
			<path class="st12" d="M303.7,805c0,1.7-3.3,10.8-3.3,10.8l39.2,5.4v-17.3L303.7,805z"/>
			<path class="st13" d="M532.6,654.1c0,0-74.6-11.2-135.3,20.2c-8.6,4.4-16.4,10.2-23.3,16.9c-29.3,28.4-55.4,56.3-75.2,115.6
				l46.6,7.6l47-69.4c4.1-5.9,10.2-10.1,17.2-11.7c24.9-5.7,84.5-19.6,93.9-25.1L532.6,654.1z"/>
		</g>
		<g>
			<path class="st13" d="M598,1100.5c0,0,28.1,37.4,74.6,18.6l-31-33L598,1100.5z"/>
			<g>
				<polygon class="st10" points="615.2,1090.7 596.4,1133 616.9,1165.4 642.3,1144.8 653.6,1098.2 				"/>
			</g>
			<g>
				<path class="st13" d="M596.4,1133l45.9,11.7l26.1,64.5c2.4,6-3.8,11.9-9.7,9.1l-81.5-39.4c-5.9-2.9-8.4-9.9-5.7-15.9l0.7-1.6
					C577.4,1149.9,585.8,1140.1,596.4,1133L596.4,1133z"/>
			</g>
			<g>
				
					<rect x="638.8" y="1167.7" transform="matrix(0.8724 -0.4888 0.4888 0.8724 -489.0549 464.5878)" class="st14" width="13" height="2.5"/>
			</g>
			<g>
				
					<rect x="644.6" y="1181.9" transform="matrix(0.8719 -0.4897 0.4897 0.8719 -495.9783 470.4084)" class="st14" width="13" height="2.5"/>
			</g>
			<path class="st8" d="M379.9,911.8c15.3-10.6,113-36.2,175-34.3c68.9,2.1,124.2,9.9,146.7,60.4s-29,181.3-29,181.3l-74.6-18.6
				l18-121.3c0,0-94.4,11.9-139.4,12.4L379.9,911.8z"/>
			<path class="st12" d="M535.7,988.4c-7.7,0-15.1,2-22.6,3.5c-7.6,1.6-15.4,2.2-23.2,2.1c-7.8-0.2-15.5-0.9-23.1-1.9
				c-3.8-0.6-7.6-1.2-11.4-1.8c-3.8-0.8-7.6-1.5-11.3-2.3l0.2-1c3.8,0.5,7.6,1,11.4,1.6c3.8,0.5,7.6,1,11.4,1.4
				c7.6,0.8,15.3,1.5,22.9,1.6c7.6,0.2,15.2-0.4,22.8-1.7c3.8-0.6,7.5-1.4,11.4-1.9s7.8-0.6,11.6-0.5L535.7,988.4z"/>
		</g>
		<path class="st14" d="M393.3,915.8l-23.7,86.9l-2.8,10.1c-2.9,10.7-14,17-24.7,14.1L187,984.6c-10.7-2.9-17.1-14-14.1-24.7
			l15.6-57.2l10.9-39.8c2.9-10.7,14-17.1,24.7-14.1l155.1,42.3C389.9,894.1,396.2,905.1,393.3,915.8z"/>
		<path class="st12" d="M249.8,883.2l13.8-50.5c1.8-6.7,8.7-10.6,15.3-8.8l0,0l-17,62.5L249.8,883.2z"/>
		<path class="st12" d="M328.5,901.3l16.2-59.6l0,0c6.7,1.8,10.6,8.7,8.8,15.3l-13,47.5L328.5,901.3z"/>
		<circle class="st8" cx="255" cy="888.1" r="10.8"/>
		<circle class="st8" cx="333.8" cy="905.6" r="10.8"/>
		<path class="st15" d="M369.7,1002.7l-2.8,10.1c-2.9,10.7-14,17-24.7,14.1l-155.1-42.3c-10.7-2.9-17.1-14-14.1-24.7l20.7-75.9
			C188.5,955.9,300.3,1002.5,369.7,1002.7z"/>
	</g>
	<g>
		<polygon class="st16" points="1720.6,1024.6 1720.6,1130.8 556,1574.4 282.4,1574.4 282.4,1472.2 553.5,1472.2 553.8,1416 
			554.1,1359.6 826.5,1359.6 826.5,1247 1097.6,1247 1097.6,1137.2 1368.7,1137.2 1368.7,1024.5 		"/>
		<path class="st14" d="M1094.6,1249.9H827.3c-3,0-5.4-2.4-5.4-5.4l0,0c0-3,2.4-5.4,5.4-5.4h267.4c3,0,5.4,2.4,5.4,5.4l0,0
			C1100.1,1247.4,1097.6,1249.9,1094.6,1249.9z"/>
		<path class="st14" d="M1366.3,1141.6h-267.4c-3,0-5.4-2.4-5.4-5.4l0,0c0-3,2.4-5.4,5.4-5.4h267.4c3,0,5.4,2.4,5.4,5.4l0,0
			C1371.7,1139.1,1369.3,1141.6,1366.3,1141.6z"/>
		<path class="st14" d="M1720.8,1027.5h-352.6c-3,0-5.4-2.4-5.4-5.4l0,0c0-3,2.4-5.4,5.4-5.4h352.6c3,0,5.4,2.4,5.4,5.4l0,0
			C1726.2,1025,1723.8,1027.5,1720.8,1027.5z"/>
		<path class="st14" d="M823.3,1361.9H555.9c-3,0-5.4-2.4-5.4-5.4l0,0c0-3,2.4-5.4,5.4-5.4h267.4c3,0,5.4,2.4,5.4,5.4l0,0
			C828.8,1359.4,826.3,1361.9,823.3,1361.9z"/>
		<path class="st14" d="M550.9,1474.5H283.6c-3,0-5.4-2.4-5.4-5.4l0,0c0-3,2.4-5.4,5.4-5.4H551c3,0,5.4,2.4,5.4,5.4l0,0
			C556.4,1472.1,553.9,1474.5,550.9,1474.5z"/>
	</g>
	<g>
		<g>
			<g>
				<path class="st17" d="M849.5,876l-1.5-16.8l26.8-2.4C1014,844.5,1131,750.4,1173,617.2l34.3-108.8l16.1,5.1l-34.3,108.8
					c-44.1,139.8-166.9,238.4-312.8,251.3L849.5,876z"/>
			</g>
			<g>
				<polygon class="st17" points="1215.8,611.6 1208.5,531.5 1154.1,594.6 1141.3,583.6 1221.7,490.4 1232.6,610.1 				"/>
			</g>
		</g>
		<path class="st17" d="M591.9,292.4c0,2.9-1.1,5.6-3.1,8.2H283.1c-1.2-2.6-1.8-5.4-1.8-8.2c0-15.3,17.8-27.8,39.8-27.8
			c7,0,13.5,1.3,19.2,3.5c3-21.8,32.9-38.9,69.2-38.9c37.9,0,68.7,18.6,69.5,41.6c11.9-3.9,27.1-6.2,43.6-6.2
			C560.9,264.6,591.9,277,591.9,292.4z"/>
		<path class="st17" d="M1124.7,86.7c0,3.4-1.3,6.8-3.7,9.9H755.1c-1.4-3.1-2.1-6.4-2.1-9.9c0-18.4,21.3-33.2,47.6-33.2
			c8.3,0,16.2,1.5,23,4.1c3.6-26.1,39.3-46.5,82.9-46.5c45.4,0,82.3,22.2,83.2,49.8c14.2-4.6,32.4-7.4,52.2-7.4
			C1087.6,53.5,1124.7,68.4,1124.7,86.7z"/>
	</g>
</g>
</svg>
