<?xml version="1.0" encoding="utf-8"?>
<!-- Generator: Adobe Illustrator 27.3.1, SVG Export Plug-In . SVG Version: 6.00 Build 0)  -->
<svg version="1.1" id="Layer_1" xmlns="http://www.w3.org/2000/svg" xmlns:xlink="http://www.w3.org/1999/xlink" x="0px" y="0px"
	 viewBox="0 0 102.9 544.1" style="enable-background:new 0 0 102.9 544.1;" xml:space="preserve">
<style type="text/css">
	.st0{fill:url(#SVGID_1_);}
	.st1{fill:#FFFFFF;}
</style>
<g>
	
		<linearGradient id="SVGID_1_" gradientUnits="userSpaceOnUse" x1="-924.184" y1="-589.8196" x2="-924.184" y2="-72.3546" gradientTransform="matrix(1 0 0 1 975.634 604.7017)">
		<stop  offset="0" style="stop-color:#9583F2"/>
		<stop  offset="1" style="stop-color:#674EEC"/>
	</linearGradient>
	<path class="st0" d="M102.9,80.2v383.6c0,23.6-19.1,42.7-42.7,42.7H41c-21.3,0-38.9,16.2-41,37V0.6c1,9.7,5.3,18.4,11.9,24.9
		c7.4,7.4,17.7,12.1,29.1,12.1h19.2C83.8,37.5,102.9,56.6,102.9,80.2z"/>
	<g>
		<g>
			<path class="st1" d="M67.4,454.5c0,2.8-0.5,5.5-1.4,7.8c-0.9,2.4-2.2,4.5-3.9,6.2c-1.7,1.8-3.7,3.1-5.9,4.1
				c-2.3,1-4.8,1.5-7.5,1.5s-5.2-0.5-7.5-1.5s-4.2-2.4-5.9-4.1c-1.7-1.8-3-3.9-3.9-6.3s-1.4-5-1.4-7.9c0-3.1,0.5-5.8,1.5-8.3
				s2.5-4.6,4.4-6.3l4.1,4.4c-1.4,1.4-2.5,3-3.2,4.6c-0.7,1.7-1,3.5-1,5.4s0.3,3.7,0.9,5.3c0.6,1.6,1.5,3,2.7,4.2
				c1.1,1.2,2.5,2.1,4.1,2.8c1.6,0.7,3.3,1,5.2,1c1.8,0,3.6-0.3,5.1-1c1.6-0.7,2.9-1.6,4.1-2.8c1.1-1.2,2-2.6,2.7-4.2
				c0.6-1.6,0.9-3.4,0.9-5.3c0-1.8-0.3-3.6-0.9-5.2c-0.6-1.7-1.5-3.3-2.9-4.8l5.1-3.8c1.5,1.9,2.7,4.1,3.5,6.6
				C67,449.4,67.4,451.9,67.4,454.5z M61.9,446.8H48.3v-6.4h14.5L61.9,446.8z"/>
			<path class="st1" d="M61.1,424.6V404h5.7v27.4H30.4v-26.6h5.7v19.9L61.1,424.6L61.1,424.6z M45.6,425.1V407h5.6v18.1H45.6z"/>
			<path class="st1" d="M66.9,389H36.1v12.1h-5.7v-31h5.7v12.1h30.7L66.9,389L66.9,389z"/>
			<path class="st1" d="M66.9,350.8H30.4v-16c0-3.9,0.8-7.3,2.3-10.3c1.5-3,3.6-5.3,6.4-7c2.7-1.7,5.9-2.5,9.6-2.5s6.8,0.8,9.6,2.5
				c2.7,1.7,4.9,4,6.4,7S67,331,67,334.8v16H66.9z M61.1,343.9v-8.8c0-2.7-0.5-5.1-1.6-7.1c-1-2-2.5-3.6-4.4-4.7s-4.1-1.7-6.6-1.7
				c-2.6,0-4.8,0.6-6.6,1.7s-3.3,2.7-4.3,4.7s-1.6,4.4-1.6,7.1v8.8H61.1z"/>
			<path class="st1" d="M66.9,307.6H30.4v-6.8h36.5V307.6z"/>
			<path class="st1" d="M67.4,279.8c0,2.8-0.4,5.6-1.2,8.2c-0.8,2.6-1.9,4.7-3.2,6.2l-5.3-2.3c1.1-1.5,2.1-3.3,2.9-5.4
				c0.8-2.2,1.1-4.4,1.1-6.6c0-1.9-0.2-3.5-0.6-4.6c-0.4-1.2-1-2-1.7-2.6s-1.5-0.8-2.4-0.8c-1.1,0-2,0.4-2.7,1.2
				c-0.7,0.8-1.2,1.8-1.6,3.1c-0.4,1.3-0.8,2.7-1.1,4.2s-0.7,3.1-1.2,4.6s-1.1,3-1.9,4.2c-0.7,1.3-1.7,2.3-3,3.1
				c-1.3,0.8-2.8,1.2-4.8,1.2s-3.8-0.5-5.4-1.6c-1.6-1.1-3-2.7-4-4.8c-1-2.2-1.5-4.9-1.5-8.3c0-2.2,0.3-4.4,0.8-6.5
				c0.6-2.2,1.4-4,2.4-5.6l5.3,2.1c-1,1.6-1.7,3.3-2.2,5.1c-0.5,1.7-0.7,3.4-0.7,5c0,1.8,0.2,3.4,0.7,4.5c0.5,1.2,1.1,2,1.8,2.6
				c0.7,0.5,1.6,0.8,2.5,0.8c1.1,0,2-0.4,2.7-1.2c0.7-0.8,1.2-1.8,1.6-3.1c0.4-1.3,0.7-2.7,1.1-4.2c0.3-1.6,0.8-3.1,1.2-4.6
				c0.5-1.5,1.1-2.9,1.8-4.2c0.7-1.3,1.7-2.3,3-3.1c1.2-0.8,2.8-1.2,4.7-1.2s3.7,0.5,5.4,1.6s3,2.7,4,4.9
				C66.9,273.6,67.4,276.4,67.4,279.8z"/>
			<path class="st1" d="M67.4,241.4c0,2.8-0.5,5.4-1.4,7.8s-2.2,4.4-3.9,6.2c-1.7,1.8-3.7,3.1-5.9,4.1c-2.3,1-4.8,1.5-7.5,1.5
				s-5.2-0.5-7.5-1.5s-4.2-2.3-5.9-4.1s-3-3.8-3.9-6.2s-1.4-5-1.4-7.8c0-3,0.5-5.7,1.5-8.2s2.5-4.6,4.6-6.3l4.1,4.4
				c-1.4,1.4-2.5,2.8-3.2,4.5c-0.7,1.6-1.1,3.4-1.1,5.3s0.3,3.7,0.9,5.2c0.6,1.6,1.5,3,2.7,4.1c1.1,1.2,2.5,2.1,4.1,2.7
				c1.6,0.7,3.3,1,5.2,1s3.6-0.3,5.2-1c1.6-0.7,2.9-1.6,4.1-2.7c1.1-1.2,2-2.5,2.7-4.1c0.6-1.6,0.9-3.3,0.9-5.2s-0.4-3.6-1.1-5.3
				c-0.7-1.6-1.8-3.1-3.3-4.5l4.1-4.4c2,1.7,3.5,3.8,4.6,6.3C66.9,235.7,67.4,238.4,67.4,241.4z"/>
			<path class="st1" d="M67.4,203.4c0,2.8-0.5,5.4-1.4,7.8s-2.3,4.5-4,6.3s-3.7,3.1-6,4.1s-4.8,1.5-7.4,1.5c-2.7,0-5.2-0.5-7.5-1.5
				s-4.3-2.3-5.9-4.1c-1.7-1.8-3-3.9-3.9-6.3s-1.4-5-1.4-7.9c0-2.8,0.5-5.4,1.4-7.8s2.2-4.5,3.9-6.2c1.7-1.8,3.7-3.1,6-4.1
				s4.8-1.5,7.5-1.5s5.2,0.5,7.5,1.5s4.3,2.3,6,4.1s3,3.8,3.9,6.2C66.9,197.9,67.4,200.4,67.4,203.4z M61.4,203.4
				c0-1.8-0.3-3.5-0.9-5.1c-0.6-1.5-1.5-2.9-2.7-4c-1.1-1.1-2.5-2-4.1-2.7c-1.6-0.6-3.3-1-5.2-1s-3.6,0.3-5.2,0.9
				c-1.6,0.6-2.9,1.5-4.1,2.7c-1.1,1.2-2,2.5-2.7,4.1c-0.6,1.5-0.9,3.2-0.9,5.1c0,1.8,0.3,3.6,0.9,5.1c0.6,1.6,1.5,2.9,2.7,4.1
				c1.2,1.1,2.5,2.1,4.1,2.7c1.5,0.7,3.3,1,5.1,1s3.5-0.3,5.1-1s2.9-1.6,4.1-2.7c1.2-1.1,2.1-2.5,2.7-4.1
				C61.1,206.9,61.4,205.2,61.4,203.4z"/>
			<path class="st1" d="M67.4,160.9c0,5-1.4,8.9-4.2,11.7s-6.9,4.2-12.2,4.2H30.4v-6.8h20.3c3.8,0,6.5-0.8,8.2-2.4s2.6-3.9,2.6-6.9
				s-0.9-5.2-2.6-6.8c-1.7-1.6-4.4-2.4-8.2-2.4H30.4v-6.7h20.5c5.4,0,9.4,1.4,12.2,4.2C66,151.9,67.4,155.9,67.4,160.9z"/>
			<path class="st1" d="M66.9,135.4H30.4v-5.6l28.1-22.9v2.8H30.4V103h36.5v5.6l-28.1,22.8v-2.8h28.1V135.4z"/>
			<path class="st1" d="M66.9,85.8H36.1v12.1h-5.7v-31h5.7v12.1h30.7L66.9,85.8L66.9,85.8z"/>
		</g>
	</g>
</g>
</svg>
