<?xml version="1.0" encoding="utf-8"?>
<!-- Generator: Adobe Illustrator 27.3.1, SVG Export Plug-In . SVG Version: 6.00 Build 0)  -->
<svg version="1.1" id="Layer_1" xmlns="http://www.w3.org/2000/svg" xmlns:xlink="http://www.w3.org/1999/xlink" x="0px" y="0px"
	 viewBox="0 0 102.9 544.1" style="enable-background:new 0 0 102.9 544.1;" xml:space="preserve">
<style type="text/css">
	.st0{fill:url(#SVGID_1_);}
	.st1{fill:#FFFFFF;}
</style>
<linearGradient id="SVGID_1_" gradientUnits="userSpaceOnUse" x1="-3448.1838" y1="1580.8196" x2="-3448.1838" y2="1063.3546" gradientTransform="matrix(-1 0 0 1 -3396.7339 -1051.7017)">
	<stop  offset="0" style="stop-color:#9583F2"/>
	<stop  offset="1" style="stop-color:#674EEC"/>
</linearGradient>
<path class="st0" d="M0,463.8V80.2c0-23.6,19.1-42.7,42.7-42.7h19.2c21.3,0,38.9-16.2,41-37v543c-1-9.7-5.3-18.4-11.9-24.9
	c-7.4-7.4-17.7-12.1-29.1-12.1H42.7C19.1,506.5,0,487.4,0,463.8z"/>
<g>
	<path class="st1" d="M59.2,432.1c4,0,7.3,1.2,10,3.7c2.7,2.5,4,5.9,4,10.3c0,4.9-1.8,8.9-5.2,11.9c-3.4,3-8.1,4.4-13.9,4.4
		c-1.1,0-1.9,0-2.5-0.1V456c0.5,0,1.2,0.1,2.2,0.1c4.3,0,7.7-0.8,10.2-2.6c2.5-1.8,3.7-4.2,3.7-7.3c0-2.6-0.7-4.5-2.1-5.9
		c-1.5-1.4-3.4-2.1-5.8-2.1c0.4,1.4,0.6,2.7,0.6,4.1c0,2.9-0.8,5.2-2.5,6.9c-1.7,1.8-3.8,2.6-6.6,2.6c-3.5,0-6.6-1.3-9-3.8V466H37
		v-49.5h5.2v18.3c3.7-2.5,6.4-7.4,8.1-14.6c4.3,1.6,8.9,2.3,13.9,2.3c2.8,0,5.7-0.4,9-1.1v6.2c-3,0.6-5.9,1-8.9,1
		c-3.9,0-7.4-0.6-10.6-1.6c-0.9,3.1-2.3,5.9-4.1,8.3c-1.8,2.5-3.9,4.3-6.3,5.5c2.2,2.8,4.7,4.2,7.5,4.2c2.9,0,4.3-1.7,4.3-4.9
		c0-2.3-0.6-4.6-1.6-7C55.1,432.4,57.1,432.1,59.2,432.1z"/>
	<path class="st1" d="M73.4,401.8c0.1,0.4,0.1,0.9,0.1,1.9c0,2.5-0.7,4.6-2.2,6.3s-3.3,2.9-5.5,3.6c-2.2,0.6-4.7,1-7.6,1.1
		c-7.9,0-13.2-1.3-16-3.9v7.9h-5.2V400h5.2v1.4c0,1.4,0.5,2.6,1.3,3.6c0.8,1,2.1,1.8,3.7,2.2s3.2,0.8,5,1c1.8,0.2,3.7,0.3,5.9,0.3
		c6.5,0,9.7-1.9,9.7-5.6c0-0.6,0-0.9-0.1-1.1L73.4,401.8L73.4,401.8z"/>
	<path class="st1" d="M42.1,368.3v5.3H73v6.3l-8.3,18.8l-0.1-0.1h-6.2l-6-8.7l-5.5,8.5h-4.7v3.6h-5.2v-33.8L42.1,368.3
		C42.1,368.2,42.1,368.3,42.1,368.3z M49.5,384.2h5.7l5.8,8.1l5.7-12.3H42.1v14.9L49.5,384.2z M75.8,389.1c1,0,1.9,0.4,2.6,1.1
		s1,1.6,1,2.6s-0.4,1.9-1,2.6c-0.6,0.7-1.6,1-2.6,1c-1,0-1.9-0.4-2.6-1c-0.7-0.6-1.1-1.6-1.1-2.6c0-1,0.4-1.9,1-2.7
		C73.7,389.4,74.7,389.1,75.8,389.1z"/>
	<path class="st1" d="M73,341.5v6.3h-0.1c-1.8,0.2-3.5,0.6-5.3,0.9c-1.7,0.5-3.4,1-5.1,1.7c-1.7,0.7-3.1,1.6-4.1,2.7
		c-1,1.1-1.6,2.3-1.6,3.7c0,1.5,0.5,2.6,1.4,3.3c0.9,0.7,2.1,1.1,3.6,1.1c1,0,1.9-0.1,2.9-0.3v6.2c-1.4,0.3-2.5,0.5-3.4,0.5
		c-2.9,0-5.3-0.8-7.2-2.6c-1.9-1.8-2.9-4.2-2.9-7.2c0-4.5,2.3-7.9,7-10h-16v22.6h-5.2v-33.8h5.2v4.8L73,341.5L73,341.5z"/>
	<path class="st1" d="M42.1,308.9v5.2H73v6.3H42.1v5.3h-5.2v-5.3h-2.1c-3.7,0-6.6-1.1-8.5-3.4s-2.9-5.6-2.9-9.9
		c0-4.8,0.9-9.6,2.7-14.4H31c-1.6,4.8-2.4,9.5-2.4,14c0,2.6,0.5,4.5,1.5,5.7c1,1.1,2.6,1.8,4.6,1.8h2.1V309L42.1,308.9L42.1,308.9z"
		/>
	<path class="st1" d="M70.1,287.8h-4l-5.4,17.2l-0.1-0.1h-5.9l-4.5-7.2l-4.5,7.1h-3.5v6.4h-5.2v-46.3h5.2v35l5.4-7.9H53l4.1,6.3
		l3.5-10.4H45.5v-6.1c0-4.2,0.9-7.6,2.7-10.1c1.8-2.6,4.3-3.9,7.4-3.9c2.7,0,4.9,0.8,6.5,2.4c1.6,1.6,2.4,3.8,2.4,6.7
		c0,0.6,0,1.1-0.1,1.3h-5v-0.7c0-2.6-1.3-3.9-3.8-3.9c-1.7,0-2.9,0.7-3.6,2.2c-0.8,1.5-1.2,3.4-1.2,5.9h26.6v6.1h-0.6
		c-1.4,0-2.1,0.6-2.1,2c0,0.6,0.3,2,0.7,3.9c0.5,1.9,0.7,3.7,0.7,5.3c0,2.5-0.7,4.6-2.2,6.2c-1.5,1.6-3.6,2.4-6.4,2.4
		c-1.3,0-2.4-0.1-3.2-0.4v-6.1c0.6,0.1,1.4,0.2,2.2,0.2c2.6,0,3.9-1.2,3.9-3.5c0-0.8-0.2-2-0.6-3.4c-0.4-1.5-0.6-2.7-0.6-3.7
		C69.1,289.3,69.5,288.3,70.1,287.8z"/>
	<path class="st1" d="M73.4,237c0.1,0.4,0.1,0.9,0.1,1.8c0,3.6-1.4,6.3-4.1,8.2c-2.8,1.9-6.5,2.8-11.2,2.9c-3,0-5.7-0.2-8-0.6
		c-2.4-0.4-4.6-1.1-6.7-2c-2-0.9-3.6-2.3-4.8-4.1c-1.1-1.8-1.8-4-1.8-6.5v-1.4h5.2v1.3c0,1.5,0.5,2.8,1.3,3.8c0.9,1,2.1,1.8,3.9,2.2
		c1.7,0.5,3.3,0.8,5,0.9c1.7,0.2,3.6,0.3,5.8,0.3c6.5,0,9.7-1.9,9.7-5.6c0-0.6,0-0.9-0.1-1.1L73.4,237L73.4,237z"/>
	<path class="st1" d="M73,207.6v6.3H62.8c-3.4,0-5.2,1.2-5.2,3.5c0,0.8,0.3,1.6,0.9,2.2c0.6,0.6,1.4,1.3,2.2,1.9
		c0.9,0.6,1.8,1.2,2.7,1.9c0.9,0.7,1.7,1.7,2.3,2.9c0.6,1.2,0.9,2.5,0.9,4.1c0,1.3-0.3,2.7-0.7,4.1h-5.3c0.4-1.1,0.5-2.1,0.5-3.2
		c0-0.7-0.2-1.4-0.6-2s-0.8-1.1-1.3-1.5c-0.5-0.4-1.1-0.8-2-1.5c-0.9-0.6-1.6-1.1-1.9-1.4c-2.7,0.5-4.8,1.5-6.3,3.1
		c-1.5,1.6-2.2,3.7-2.2,6.2h-4.8v3.2h-5.2v-35h5.2v5.3L73,207.6L73,207.6z M52.1,218.7c0-2.2,0.7-3.8,2.2-4.8H42.1v14.2
		c0.8-2.2,2.2-4.1,4-5.5c1.8-1.5,3.8-2.4,6.1-3C52.2,219.4,52.1,219.1,52.1,218.7z"/>
	<path class="st1" d="M42.1,187.7v5.2H73v6.3H42.1v5.3h-5.2v-5.3h-2.1c-3.7,0-6.6-1.1-8.5-3.4c-1.9-2.3-2.9-5.6-2.9-9.9
		c0-4.8,0.9-9.6,2.7-14.4H31c-1.6,4.8-2.4,9.5-2.4,14c0,2.6,0.5,4.5,1.5,5.7c1,1.1,2.6,1.8,4.6,1.8h2.1v-5.1L42.1,187.7L42.1,187.7z
		"/>
	<path class="st1" d="M42.1,152.9v6.3H73v6.4h-4.9c-2.9,0-5.1,0.7-6.8,2.1c-1.7,1.5-2.5,3.4-2.5,6.1c0,1.7,0.4,3.1,1.2,4.1
		c0.7,1,1.9,1.5,3.3,1.5c1.4,0,2.5-0.5,3.2-1.4s1-2.1,1-3.6c0-0.8-0.1-1.7-0.2-2.5h5.3c0.2,1.1,0.4,2.3,0.4,3.6
		c0,3.1-0.8,5.5-2.5,7.4c-1.7,1.9-4.1,2.9-7.2,2.9c-2.4,0-4.5-0.6-6-1.9c-1.7-1.3-2.8-3.1-3.4-5.3c-2.3,0.4-4.1,1.1-5.2,2.4
		c-1.1,1.3-1.7,3.2-1.7,5.5h-4.8v3.4h-5.2v-37.1L42.1,152.9L42.1,152.9z M57.6,165.6H42.1v14.9c0.9-2.3,2.4-4.1,4.4-5.5
		c1.9-1.4,4.3-2.2,6.8-2.5C53.8,169.4,55.2,167.1,57.6,165.6z"/>
	<path class="st1" d="M73,126.8v6.3h-0.1c-1.8,0.2-3.5,0.6-5.3,0.9s-3.4,1-5.1,1.7c-1.7,0.7-3.1,1.6-4.1,2.7c-1,1.1-1.6,2.3-1.6,3.7
		c0,1.5,0.5,2.6,1.4,3.3c0.9,0.7,2.1,1.1,3.6,1.1c1,0,1.9-0.1,2.9-0.3v6.2c-1.4,0.3-2.5,0.5-3.4,0.5c-2.9,0-5.3-0.8-7.2-2.6
		c-1.9-1.8-2.9-4.2-2.9-7.2c0-4.5,2.3-7.9,7-10h-16v22.6h-5.2v-33.8h5.2v4.8L73,126.8L73,126.8z"/>
	<path class="st1" d="M42.1,107.3v5.2H73v6.3H45.9c-1.4,0-2.4,0.2-3,0.6c-0.6,0.5-0.8,1.3-0.8,2.5v2h-5.2v-2.8
		c0-1.4,0.7-2.5,2.1-3.2c-2,0.4-3.8,0.6-5.4,0.6h-1.2v-6.1h4.5v-5.2H42.1z"/>
	<path class="st1" d="M42.1,78.2v5.2H73v6.2h-0.1l0.1,0.1l-12.1,16.7h-6.3c-4.5-5.4-7.6-11-9.2-16.9h-3.3v20h-5.2V78.2H42.1z
		 M66.1,89.5H51.5c1.5,4.1,3.6,7.8,6.3,11.1L66.1,89.5z M71.7,99.7c1,0,1.9,0.4,2.6,1.1c0.7,0.7,1,1.6,1,2.6c0,1-0.4,1.9-1,2.6
		c-0.6,0.7-1.6,1-2.6,1c-1,0-1.9-0.4-2.6-1c-0.7-0.7-1.1-1.6-1.1-2.6c0-1,0.4-1.9,1-2.6C69.8,100.1,70.7,99.7,71.7,99.7z"/>
</g>
</svg>
