<?xml version="1.0" encoding="utf-8"?>
<!-- Generator: Adobe Illustrator 27.3.1, SVG Export Plug-In . SVG Version: 6.00 Build 0)  -->
<svg version="1.1" id="Layer_1" xmlns="http://www.w3.org/2000/svg" xmlns:xlink="http://www.w3.org/1999/xlink" x="0px" y="0px"
	 viewBox="0 0 603.9 174" style="enable-background:new 0 0 603.9 174;" xml:space="preserve">
<style type="text/css">
	.st0{fill:#00558B;}
	.st1{fill:#FCFDFF;}
	.st2{fill:#F8F7F2;}
</style>
<g>
	<path class="st0" d="M186.2,174H13.8C6.2,174,0,167.9,0,160.3V13.8C0,6.2,6.2,0,13.8,0h172.5c7.6,0,13.8,6.2,13.8,13.8v146.5
		C200,167.9,193.8,174,186.2,174z"/>
	<g>
		<g>
			<g>
				<path class="st1" d="M46.9,91.5v36.2H27V45.8h20v35.9l27.3-35.9h23.5L66,85.9l32.9,41.8H74.5L46.9,91.5z"/>
			</g>
		</g>
		<path class="st2" d="M150.7,100.8c-3.4,6.6-9.5,9.8-16.8,9.8c-12.3,0-20.7-9.1-20.7-23.6s8.4-23.6,20.7-23.6
			c7.6,0,13.8,3.5,17.2,10.5l19-8c-6.5-13-19.5-20.7-35.9-20.7c-24.2,0-41.2,17.3-41.2,41.8s17,41.7,41.2,41.7
			c13,0,23.9-4.9,31.1-13.4l7.5,7.5V89.8h-33.1L150.7,100.8z"/>
	</g>
</g>
<g>
	<g>
		<path class="st0" d="M263.6,59.2l-9.1,9.5v17.2h-15.6v-68h15.6v31.8l30.1-31.8h17.5l-28.2,30.3l29.8,37.7h-18.4L263.6,59.2z"/>
		<path class="st0" d="M373.1,17.9v68h-15.7V58h-30.9v27.9h-15.7v-68h15.7v26.8h30.9V17.9H373.1z"/>
		<path class="st0" d="M433.9,71.3h-31.6l-6,14.6h-16.1l30.3-68h15.5l30.4,68H440L433.9,71.3z M429,59.4l-10.8-26l-10.8,26H429z"/>
		<path class="st0" d="M463.6,17.9h15.7v55.1h34.1v12.8h-49.8V17.9z"/>
		<path class="st0" d="M522.2,17.9h15.7v68h-15.7V17.9z"/>
		<path class="st0" d="M554,17.9h15.7v55.1h34.1v12.8H554V17.9z"/>
	</g>
	<g>
		<path class="st0" d="M239,134.5c0-12.5,9.6-21.6,22.5-21.6c6.8,0,12.7,2.5,16.6,7l-5,4.7c-3.1-3.3-6.8-4.9-11.2-4.9
			c-8.7,0-15,6.1-15,14.8c0,8.6,6.3,14.8,15,14.8c4.4,0,8.2-1.6,11.2-5l5,4.8c-3.9,4.6-9.8,7-16.7,7C248.6,156.1,239,147,239,134.5z
			"/>
		<path class="st0" d="M283,134.5c0-12.4,9.6-21.6,22.6-21.6s22.6,9.1,22.6,21.6c0,12.5-9.6,21.6-22.6,21.6S283,146.9,283,134.5z
			 M320.4,134.5c0-8.6-6.3-14.8-14.8-14.8c-8.5,0-14.8,6.2-14.8,14.8c0,8.6,6.3,14.8,14.8,14.8C314.1,149.2,320.4,143.1,320.4,134.5
			z"/>
		<path class="st0" d="M376.5,155.5l-0.1-27.8l-13.8,23h-3.5L345.3,128v27.5h-7.4v-42h6.4l16.7,27.8l16.4-27.8h6.4l0.1,42H376.5z"/>
		<path class="st0" d="M431.7,128.4c0,9.2-6.8,14.9-17.9,14.9h-9.5v12.1h-7.8v-42h17.3C424.9,113.5,431.7,119.1,431.7,128.4z
			 M423.9,128.4c0-5.3-3.5-8.3-10.4-8.3h-9.1v16.7h9.1C420.3,136.8,423.9,133.7,423.9,128.4z"/>
		<path class="st0" d="M440.5,137.2v-23.7h7.8v23.4c0,8.6,3.9,12.4,10.7,12.4c6.8,0,10.6-3.7,10.6-12.4v-23.4h7.7v23.7
			c0,12.2-6.9,18.9-18.4,18.9C447.4,156.1,440.5,149.4,440.5,137.2z"/>
		<path class="st0" d="M497.3,120.1h-13.9v-6.6H519v6.6h-13.9v35.4h-7.8V120.1z"/>
		<path class="st0" d="M557.8,148.9v6.5h-31.5v-42h30.6v6.5h-22.8v10.9h20.3v6.4h-20.3v11.6H557.8z"/>
		<path class="st0" d="M595.3,155.5l-8.6-12.3c-0.5,0.1-1.1,0.1-1.6,0.1h-9.5v12.2h-7.8v-42h17.3c11,0,17.9,5.6,17.9,14.9
			c0,6.4-3.2,11-8.9,13.3l9.7,13.8H595.3z M584.8,120.1h-9.1v16.7h9.1c6.8,0,10.4-3.1,10.4-8.4C595.1,123.2,591.6,120.1,584.8,120.1
			z"/>
	</g>
</g>
</svg>
