<?xml version="1.0" encoding="utf-8"?>
<!-- Generator: Adobe Illustrator 27.3.1, SVG Export Plug-In . SVG Version: 6.00 Build 0)  -->
<svg version="1.1" id="Layer_1" xmlns="http://www.w3.org/2000/svg" xmlns:xlink="http://www.w3.org/1999/xlink" x="0px" y="0px"
	 viewBox="0 0 280.7 94.5" style="enable-background:new 0 0 280.7 94.5;" xml:space="preserve">
<style type="text/css">
	.st0{fill:#FFFFFF;}
	.st1{fill:#00558C;}
</style>
<g>
	<g>
		<g>
			<path class="st0" d="M7.1,86.8l-2.6,2.7v4.9H0V74.9h4.5V84l8.6-9.1h5L10,83.6l8.5,10.8h-5.3L7.1,86.8z"/>
			<path class="st0" d="M38.4,74.9v19.5h-4.5v-8h-8.8v8h-4.5V74.9h4.5v7.7h8.8v-7.7H38.4z"/>
			<path class="st0" d="M55.9,90.2h-9l-1.7,4.2h-4.6l8.7-19.5h4.4l8.7,19.5h-4.7L55.9,90.2z M54.4,86.8l-3.1-7.5l-3.1,7.5H54.4z"/>
			<path class="st0" d="M64.3,74.9h4.5v15.8h9.8v3.7H64.3V74.9z"/>
			<path class="st0" d="M81.1,74.9h4.5v19.5h-4.5V74.9z"/>
			<path class="st0" d="M90.2,74.9h4.5v15.8h9.8v3.7H90.2V74.9z"/>
		</g>
		<g>
			<path class="st0" d="M116.3,84.7c0-5.6,4.3-9.7,10.1-9.7c3.1,0,5.7,1.1,7.5,3.2l-2.3,2.1c-1.4-1.5-3.1-2.2-5.1-2.2
				c-3.9,0-6.8,2.8-6.8,6.6c0,3.9,2.8,6.6,6.8,6.6c2,0,3.7-0.7,5.1-2.2l2.3,2.2c-1.8,2.1-4.4,3.2-7.5,3.2
				C120.7,94.4,116.3,90.3,116.3,84.7z"/>
			<path class="st0" d="M136.2,84.7c0-5.6,4.3-9.7,10.2-9.7s10.2,4.1,10.2,9.7s-4.3,9.7-10.2,9.7S136.2,90.3,136.2,84.7z M153,84.7
				c0-3.9-2.8-6.6-6.6-6.6s-6.6,2.8-6.6,6.6c0,3.9,2.8,6.6,6.6,6.6S153,88.5,153,84.7z"/>
			<path class="st0" d="M178.3,94.1V81.6L172.1,92h-1.6l-6.2-10.2v12.4h-3.4v-19h2.9l7.5,12.5l7.4-12.5h2.9v18.9H178.3z"/>
			<path class="st0" d="M203.2,81.9c0,4.2-3.1,6.7-8.1,6.7h-4.3v5.5h-3.5V75.2h7.8C200.1,75.2,203.2,77.8,203.2,81.9z M199.7,81.9
				c0-2.4-1.6-3.8-4.7-3.8h-4.1v7.6h4.1C198.1,85.7,199.7,84.3,199.7,81.9z"/>
			<path class="st0" d="M207.2,85.9V75.2h3.5v10.5c0,3.9,1.8,5.6,4.8,5.6c3.1,0,4.8-1.7,4.8-5.6V75.2h3.5v10.7
				c0,5.5-3.1,8.5-8.3,8.5S207.2,91.4,207.2,85.9z"/>
			<path class="st0" d="M232.8,78.2h-6.3v-3h16.1v3h-6.3v15.9h-3.5V78.2z"/>
			<path class="st0" d="M260,91.2v2.9h-14.2V75.2h13.8v2.9h-10.3V83h9.1v2.9h-9.1v5.2L260,91.2L260,91.2z"/>
			<path class="st0" d="M277,94.1l-3.9-5.5c-0.2,0-0.5,0-0.7,0h-4.3v5.5h-3.5V75.2h7.8c5,0,8.1,2.5,8.1,6.7c0,2.9-1.5,5-4,6l4.4,6.2
				C280.9,94.1,277,94.1,277,94.1z M272.2,78.2h-4.1v7.5h4.1c3.1,0,4.7-1.4,4.7-3.8C276.9,79.6,275.3,78.2,272.2,78.2z"/>
		</g>
	</g>
</g>
<g>
	<path class="st0" d="M170.6,61h-60.4c-2.7,0-4.8-2.2-4.8-4.8V4.8c0-2.7,2.2-4.8,4.8-4.8h60.4c2.7,0,4.8,2.2,4.8,4.8v51.3
		C175.4,58.8,173.2,61,170.6,61z"/>
	<g>
		<g>
			<g>
				<path class="st1" d="M121.8,32.1v12.7h-7V16h7v12.6l9.6-12.6h8.2l-11.1,14.1L140,44.7h-8.5L121.8,32.1z"/>
			</g>
		</g>
		<path class="st1" d="M158.1,35.3c-1.2,2.3-3.3,3.4-5.9,3.4c-4.3,0-7.2-3.2-7.2-8.3s2.9-8.3,7.2-8.3c2.7,0,4.8,1.2,6,3.7l6.6-2.8
			c-2.3-4.6-6.8-7.3-12.6-7.3c-8.5,0-14.4,6.1-14.4,14.6s6,14.6,14.4,14.6c4.6,0,8.4-1.7,10.9-4.7l2.6,2.6V31.5h-11.6L158.1,35.3z"
			/>
	</g>
</g>
</svg>
