<?xml version="1.0" encoding="utf-8"?>
<!-- Generator: Adobe Illustrator 27.3.1, SVG Export Plug-In . SVG Version: 6.00 Build 0)  -->
<svg version="1.1" id="Layer_1" xmlns="http://www.w3.org/2000/svg" xmlns:xlink="http://www.w3.org/1999/xlink" x="0px" y="0px"
	 viewBox="0 0 183.9 61" style="enable-background:new 0 0 183.9 61;" xml:space="preserve">
<style type="text/css">
	.st0{fill:#FFFFFF;}
	.st1{fill:#00558C;}
</style>
<g>
	<g>
		<g>
			<g>
				<g>
					<path class="st0" d="M86.5,22.5l-2.6,2.7v4.9h-4.5V10.7h4.5v9.1l8.6-9.1h5l-8.1,8.7L98,30.2h-5.3L86.5,22.5z"/>
					<path class="st0" d="M117.8,10.7v19.5h-4.5v-8h-8.8v8H100V10.7h4.5v7.7h8.8v-7.7H117.8z"/>
					<path class="st0" d="M135.3,26h-9l-1.7,4.2H120l8.7-19.5h4.4l8.7,19.5H137L135.3,26z M133.8,22.6l-3.1-7.5l-3.1,7.5H133.8z"/>
					<path class="st0" d="M143.7,10.7h4.5v15.8h9.8v3.7h-14.3V10.7z"/>
					<path class="st0" d="M160.5,10.7h4.5v19.5h-4.5V10.7z"/>
					<path class="st0" d="M169.6,10.7h4.5v15.8h9.8v3.7h-14.3V10.7z"/>
				</g>
				<g>
					<path class="st0" d="M79.4,44.1c0-3.6,2.7-6.2,6.4-6.2c2,0,3.6,0.7,4.8,2l-1.4,1.4c-0.9-0.9-2-1.4-3.2-1.4
						c-2.5,0-4.3,1.8-4.3,4.2c0,2.5,1.8,4.2,4.3,4.2c1.3,0,2.3-0.5,3.2-1.4l1.4,1.4c-1.1,1.3-2.8,2-4.8,2
						C82.2,50.3,79.4,47.7,79.4,44.1z"/>
					<path class="st0" d="M92,44.1c0-3.6,2.7-6.2,6.5-6.2c3.7,0,6.5,2.6,6.5,6.2c0,3.6-2.7,6.2-6.5,6.2C94.8,50.3,92,47.6,92,44.1z
						 M102.7,44.1c0-2.5-1.8-4.2-4.2-4.2c-2.4,0-4.2,1.8-4.2,4.2c0,2.5,1.8,4.2,4.2,4.2C100.9,48.3,102.7,46.5,102.7,44.1z"/>
					<path class="st0" d="M118.8,50.1v-8l-3.9,6.6h-1l-3.9-6.5v7.9h-2.1v-12h1.8l4.8,8l4.7-8h1.8v12H118.8z"/>
					<path class="st0" d="M134.6,42.3c0,2.6-2,4.3-5.1,4.3h-2.7v3.5h-2.2v-12h4.9C132.7,38.1,134.6,39.7,134.6,42.3z M132.4,42.3
						c0-1.5-1-2.4-3-2.4h-2.6v4.8h2.6C131.4,44.7,132.4,43.9,132.4,42.3z"/>
					<path class="st0" d="M137.1,44.8V38h2.2v6.7c0,2.5,1.1,3.5,3.1,3.5c1.9,0,3-1.1,3-3.5V38h2.2v6.8c0,3.5-2,5.4-5.3,5.4
						C139.1,50.3,137.1,48.4,137.1,44.8z"/>
					<path class="st0" d="M153.4,40h-4v-1.9h10.2V40h-4v10.1h-2.2V40z"/>
					<path class="st0" d="M170.7,48.2v1.9h-9v-12h8.8V40H164v3.1h5.8v1.8H164v3.3H170.7z"/>
					<path class="st0" d="M181.5,50.1l-2.5-3.5c-0.2,0-0.3,0-0.5,0h-2.7v3.5h-2.2v-12h4.9c3.2,0,5.1,1.6,5.1,4.3
						c0,1.8-0.9,3.2-2.6,3.8l2.8,3.9H181.5z M178.4,40h-2.6v4.8h2.6c2,0,3-0.9,3-2.4C181.4,40.8,180.4,40,178.4,40z"/>
				</g>
			</g>
		</g>
		<g>
			<path class="st0" d="M65.2,61H4.8C2.2,61,0,58.8,0,56.1V4.8C0,2.2,2.2,0,4.8,0h60.4C67.9,0,70,2.2,70,4.8v51.3
				C70.1,58.8,67.9,61,65.2,61z"/>
			<g>
				<g>
					<g>
						<path class="st1" d="M16.4,32.1v12.7h-7V16h7v12.6L26,16h8.2L23.1,30.1l11.5,14.6h-8.5L16.4,32.1z"/>
					</g>
				</g>
				<path class="st1" d="M52.8,35.3c-1.2,2.3-3.3,3.4-5.9,3.4c-4.3,0-7.2-3.2-7.2-8.3s2.9-8.3,7.2-8.3c2.7,0,4.8,1.2,6,3.7l6.6-2.8
					c-2.3-4.6-6.8-7.3-12.6-7.3c-8.5,0-14.4,6.1-14.4,14.6s6,14.6,14.4,14.6c4.6,0,8.4-1.7,10.9-4.7l2.6,2.6V31.5H48.9L52.8,35.3z"
					/>
			</g>
		</g>
	</g>
</g>
</svg>
