<?xml version="1.0" encoding="utf-8"?>
<!-- Generator: Adobe Illustrator 27.3.1, SVG Export Plug-In . SVG Version: 6.00 Build 0)  -->
<svg version="1.1" id="Layer_1" xmlns="http://www.w3.org/2000/svg" xmlns:xlink="http://www.w3.org/1999/xlink" x="0px" y="0px"
	 viewBox="0 0 100 100" style="enable-background:new 0 0 100 100;" xml:space="preserve">
<g>
	<path d="M87.8,78c-0.8,0-1.6,0-2.5,0c0,2.5,0,4.9,0,7.3l0,0c-0.8,0-1.6,0-2.4,0c0,1.7,0,3.3,0,4.9c1.6,0,3.2,0,4.8,0l0,0
		c0,0.8,0,1.6,0,2.4c-4.1,0-8.1,0-12.2,0l0,0c0-1.6,0-3.3,0-4.9c0.8,0,1.6,0,2.4,0c0-0.8,0-1.6,0-2.4c-0.8,0-1.6,0-2.4,0
		c0,0.8,0,1.6,0,2.4c-1.6,0-3.2,0-4.9,0c0,0.8,0,1.6,0,2.4c-0.8,0-1.6,0-2.4,0c0,0.8,0,1.6,0,2.4l0,0c-0.8,0-1.6,0-2.5,0
		c0-1.6,0-3.3,0-4.9c0.8,0,1.6,0,2.4,0c0-0.8,0-1.6,0-2.4c-0.8,0-1.6,0-2.4,0c0,0.8,0,1.6,0,2.4c-0.8,0-1.6,0-2.4,0
		c0-1.7,0-3.3,0-4.9l0,0c0.8,0,1.6,0,2.5,0c0-1.7,0-3.3,0-4.9c0.8,0,1.6,0,2.4,0c0-0.8,0-1.6,0-2.4l0,0c0.8,0,1.6,0,2.5,0
		c0-0.9,0-1.6,0-2.5c4.9,0,9.8,0,14.6,0c0,0.8,0,1.6,0,2.5c0.8,0,1.6,0,2.4,0C87.8,76.5,87.8,77.2,87.8,78L87.8,78z M75.6,75.6
		c0,2.5,0,4.8,0,7.3c2.4,0,4.8,0,7.2,0c0-2.4,0-4.8,0-7.3C80.4,75.6,78,75.6,75.6,75.6z M73.1,80.5c-1.6,0-3.2,0-4.8,0
		c0,0.8,0,1.6,0,2.4c0.8,0,1.6,0,2.4,0c0,0.8,0,1.6,0,2.4c0.8,0,1.6,0,2.4,0C73.1,83.7,73.1,82.1,73.1,80.5z"/>
	<path d="M24.4,73.2c-0.8,0-1.6,0-2.4,0c0-0.8,0-1.6,0-2.4c-0.8,0-1.6,0-2.4,0c0,0.8,0,1.6,0,2.4c0.8,0,1.6,0,2.4,0
		c0,0.8,0,1.6,0,2.4c-1.6,0-3.2,0-4.9,0c0-1.6,0-3.2,0-4.8c-2.4,0-4.9,0-7.3,0c0-0.8,0-1.6,0-2.4c2.4,0,4.8,0,7.3,0
		c0-0.8,0-1.6,0-2.4c0.9,0,1.7,0,2.5,0l0,0c0,0.8,0,1.6,0,2.4c3.3,0,6.5,0,9.8,0c0-0.8,0-1.6,0-2.4l0,0c0.8,0,1.6,0,2.5,0
		c0,0.8,0,1.6,0,2.4c1.6,0,3.2,0,4.8,0c0,0.8,0,1.6,0,2.4c-0.8,0-1.6,0-2.4,0c0,1.7,0,3.3,0,4.9l0,0c-0.8,0-1.6,0-2.4,0
		c0-1.6,0-3.2,0-4.8c-0.8,0-1.6,0-2.4,0c0,1.6,0,3.2,0,4.8c-0.8,0-1.6,0-2.4,0c0,0.8,0,1.6,0,2.4c1.6,0,3.2,0,4.8,0
		c0,2.5,0,4.9,0,7.3c-0.8,0-1.6,0-2.4,0c0,1.6,0,3.2,0,4.9c0.8,0,1.6,0,2.4,0c0-0.8,0-1.6,0-2.4c1.6,0,3.2,0,4.9,0
		c0,0.8,0,1.6,0,2.4c-0.8,0-1.6,0-2.4,0c0,1.6,0,3.2,0,4.9c-0.8,0-1.6,0-2.4,0c0-0.8,0-1.6,0-2.4c-0.8,0-1.6,0-2.4,0
		c0,0.8,0,1.6,0,2.4c-1.6,0-3.2,0-4.8,0c0-4,0-8.1,0-12.1c1.6,0,3.2,0,4.8,0c0-0.8,0-1.6,0-2.4c-1.6,0-3.2,0-4.9,0
		C24.4,78,24.4,75.6,24.4,73.2c0.8,0,1.6,0,2.4,0c0-0.8,0-1.6,0-2.4c-0.8,0-1.6,0-2.4,0C24.4,71.6,24.4,72.4,24.4,73.2z"/>
	<path d="M61,82.9c0,1.6,0,3.2,0,4.8c-1.6,0-3.2,0-4.8,0c0-1.6,0-3.2,0-4.8c-1.6,0-3.2,0-4.9,0c0-0.8,0-1.6,0-2.4c0.8,0,1.6,0,2.4,0
		c0-0.8,0-1.6,0-2.4c-0.8,0-1.6,0-2.4,0c0-0.8,0-1.6,0-2.4c0.8,0,1.6,0,2.4,0c0-0.8,0-1.6,0-2.4c-0.8,0-1.6,0-2.4,0
		c0-0.8,0-1.6,0-2.4c0.8,0,1.5,0,2.4,0c0-0.8,0-1.6,0-2.5c-1.6,0-3.2,0-4.8,0l0,0c0-1.6,0-3.2,0-4.9c0.9,0,1.6,0,2.4,0
		c0,0.8,0,1.6,0,2.4c0.8,0,1.6,0,2.4,0c0-0.8,0-1.6,0-2.4c-0.8,0-1.6,0-2.4,0c0-0.8,0-1.6,0-2.5c0.9,0,1.6,0,2.4,0
		c0-0.8,0-1.6,0-2.4c-0.8,0-1.6,0-2.4,0c0-0.8,0-1.6,0-2.4c0.8,0,1.6,0,2.4,0c0-0.8,0-1.6,0-2.4l0,0c0.8,0,1.6,0,2.5,0
		c0,0.8,0,1.6,0,2.5c1.7,0,3.2,0,4.9,0c0,1.7,0,3.3,0,4.9c-0.8,0-1.6,0-2.5,0c0-0.9,0-1.6,0-2.4c-0.8,0-1.6,0-2.4,0
		c0,1.6,0,3.2,0,4.9c0.8,0,1.6,0,2.4,0c0,0.8,0,1.6,0,2.4c0.8,0,1.6,0,2.4,0c0,1.7,0,3.2,0,4.9c0.8,0,1.6,0,2.4,0c0,0.8,0,1.6,0,2.4
		c-0.8,0-1.6,0-2.4,0c0,0.8,0,1.6,0,2.4c-0.8,0-1.6,0-2.4,0c0,0.8,0,1.6,0,2.4c-0.8,0-1.6,0-2.4,0c0,0.8,0,1.6,0,2.4
		c0.8,0,1.6,0,2.4,0c0,0.8,0,1.6,0,2.5C59.4,82.9,60.2,82.9,61,82.9L61,82.9z M56.1,68.3c0,0.8,0,1.6,0,2.4c0.8,0,1.6,0,2.4,0
		c0-0.8,0-1.6,0-2.4C57.7,68.3,56.9,68.3,56.1,68.3z"/>
	<path d="M87.8,39c0.8,0,1.6,0,2.4,0c0-1.6,0-3.2,0-4.9c1.6,0,3.2,0,4.8,0c0,0.8,0,1.6,0,2.4c-0.8,0-1.6,0-2.4,0c0,1.6,0,3.2,0,4.9
		c-0.8,0-1.6,0-2.4,0c0,0.8,0,1.6,0,2.5c1.6,0,3.2,0,4.8,0c0,1.6,0,3.2,0,4.8c-0.8,0-1.6,0-2.4,0c0-0.8,0-1.6,0-2.4
		c-1.6,0-3.2,0-4.8,0c0,0.8,0,1.6,0,2.4c0.8,0,1.6,0,2.4,0c0,0.8,0,1.6,0,2.4c-0.8,0-1.6,0-2.4,0c0,2.5,0,4.9,0,7.3l0,0
		c-0.8,0-1.6,0-2.4,0c0-2.4,0-4.8,0-7.3c-1.7,0-3.3,0-4.9,0c0,2.4,0,4.8,0,7.2c1.6,0,3.3,0,4.9,0c0,0.8,0,1.6,0,2.5
		c-3.2,0-6.5,0-9.8,0c0-2.5,0-4.9,0-7.3c0.8,0,1.6,0,2.4,0c0-0.8,0-1.6,0-2.4c-0.8,0-1.6,0-2.4,0c0-0.8,0-1.6,0-2.5
		c2.5,0,4.9,0,7.3,0c0-0.8,0-1.6,0-2.4c0.8,0,1.6,0,2.5,0c0-1.7,0-3.3,0-4.9l0,0c0.8,0,1.6,0,2.5,0C87.8,40.6,87.8,39.8,87.8,39
		L87.8,39z"/>
	<path d="M70.7,14.7c0,2.4,0,4.8,0,7.3c-0.8,0-1.6,0-2.4,0l0,0c0-0.8,0-1.6,0-2.4c-0.9,0-1.6,0-2.5,0c0,0.8,0,1.6,0,2.4l0,0
		c-0.8,0-1.6,0-2.4,0c0-0.8,0-1.6,0-2.4c-0.8,0-1.6,0-2.4,0c0,0.8,0,1.6,0,2.4c0.8,0,1.6,0,2.4,0c0,0.8,0,1.6,0,2.4
		c-0.8,0-1.6,0-2.4,0c0,0.8,0,1.6,0,2.4c1.6,0,3.2,0,4.8,0c0,0.8,0,1.6,0,2.5c2.5,0,4.9,0,7.3,0l0,0c0,0.8,0,1.6,0,2.5l0,0
		c-3.3,0-6.5,0-9.8,0c0-0.8,0-1.6,0-2.4c-0.8,0-1.6,0-2.4,0c0,0.8,0,1.6,0,2.4c-0.8,0-1.6,0-2.5,0l0,0c0-0.8,0-1.6,0-2.5
		c-0.9,0-1.6,0-2.4,0c0-0.8,0-1.6,0-2.4c0.8,0,1.6,0,2.4,0c0-0.8,0-1.6,0-2.5c-4.1,0-8.1,0-12.1,0c0-0.8,0-1.6,0-2.4l0,0
		c0.8,0,1.6,0,2.5,0c0-0.9,0-1.7,0-2.5l0,0c0.8,0,1.6,0,2.5,0c0,0.8,0,1.6,0,2.4c0.8,0,1.6,0,2.4,0c0-0.8,0-1.6,0-2.4
		c0.8,0,1.6,0,2.4,0c0,0.8,0,1.6,0,2.4c0.8,0,1.6,0,2.4,0c0-0.8,0-1.6,0-2.4c-0.8,0-1.6,0-2.4,0c0-1.6,0-3.3,0-4.9l0,0
		c0.8,0,1.6,0,2.5,0c0,0.8,0,1.6,0,2.4c0.8,0,1.6,0,2.4,0c0-0.8,0-1.6,0-2.4c0.8,0,1.6,0,2.4,0c0,0.8,0,1.6,0,2.4c1.6,0,3.2,0,4.9,0
		c0-0.8,0-1.6,0-2.4l0,0C69.1,14.7,69.9,14.7,70.7,14.7L70.7,14.7z"/>
	<path d="M39,43.9c-0.8,0-1.6,0-2.4,0c0,0.8,0,1.6,0,2.4c-0.8,0-1.6,0-2.4,0c0-1.6,0-3.2,0-4.8c0.8,0,1.6,0,2.4,0c0-0.8,0-1.6,0-2.4
		c-0.8,0-1.6,0-2.4,0c0-0.9,0-1.7,0-2.5l0,0c3.2,0,6.5,0,9.7,0c0,2.4,0,4.8,0,7.3c0.8,0,1.6,0,2.4,0c0-1.6,0-3.2,0-4.8
		c0.8,0,1.6,0,2.4,0c0,0.8,0,1.6,0,2.4c0.8,0,1.6,0,2.5,0c0-1.6,0-3.2,0-4.8l0,0c0.8,0,1.6,0,2.5,0l0,0c0,1.6,0,3.2,0,4.9
		c1.7,0,3.3,0,4.9,0l0,0c0,0.8,0,1.6,0,2.5c-3.3,0-6.5,0-9.8,0c0,0.8,0,1.6,0,2.4c-0.8,0-1.6,0-2.4,0c0,0.8,0,1.6,0,2.4l0,0
		c-1.6,0-3.2,0-4.9,0c0-0.8,0-1.6,0-2.4c-0.8,0-1.6,0-2.5,0C39,45.5,39,44.7,39,43.9c0.8,0,1.6,0,2.4,0c0-0.8,0-1.6,0-2.4
		c-0.8,0-1.6,0-2.4,0C39,42.3,39,43.1,39,43.9z"/>
	<path d="M51.2,36.6c-1.6,0-3.2,0-4.9,0c0-0.8,0-1.6,0-2.4l0,0c0.8,0,1.6,0,2.5,0c0-0.9,0-1.7,0-2.5l0,0c0.8,0,1.6,0,2.4,0
		c0-0.9,0-1.7,0-2.5c0.8,0,1.6,0,2.5,0c0,0.9,0,1.6,0,2.5c1.7,0,3.3,0,4.9,0l0,0c0,0.8,0,1.6,0,2.4c0.9,0,1.7,0,2.5,0
		c0,0.8,0,1.6,0,2.4c0.9,0,1.6,0,2.4,0c0,0.8,0,1.6,0,2.4c1.6,0,3.2,0,4.9,0c0-0.8,0-1.6,0-2.4c0.8,0,1.6,0,2.4,0l0,0
		c0,1.6,0,3.2,0,4.9c-0.8,0-1.6,0-2.4,0c0,0.8,0,1.6,0,2.4c-0.8,0-1.6,0-2.4,0c0,1.7,0,3.3,0,4.9c-1.6,0-3.3,0-4.9,0
		c0-0.8,0-1.6,0-2.5c0.9,0,1.6,0,2.4,0c0-0.8,0-1.6,0-2.4c-0.8,0-1.6,0-2.4,0c0-0.8,0-1.6,0-2.4c-0.8,0-1.6,0-2.4,0l0,0
		c0-0.8,0-1.6,0-2.5c-0.8,0-1.6,0-2.5,0c0-0.8,0-1.6,0-2.4c-0.8,0-1.6,0-2.4,0l0,0c0-0.8,0-1.6,0-2.4c-0.9,0-1.6,0-2.5,0
		C51.2,35,51.2,35.8,51.2,36.6L51.2,36.6z"/>
	<path d="M4.9,95.1c0-5.7,0-11.3,0-17c5.7,0,11.3,0,17,0c0,5.6,0,11.3,0,17C16.3,95.1,10.6,95.1,4.9,95.1z M7.4,80.5
		c0,4.1,0,8.1,0,12.1c4.1,0,8.1,0,12.1,0c0-4.1,0-8.1,0-12.1C15.5,80.5,11.4,80.5,7.4,80.5z"/>
	<path d="M4.9,21.9c0-5.7,0-11.3,0-17c5.7,0,11.3,0,17,0c0,5.6,0,11.3,0,17C16.3,21.9,10.6,21.9,4.9,21.9z M7.4,19.5
		c4.1,0,8.1,0,12.1,0c0-4.1,0-8.1,0-12.1c-4.1,0-8.1,0-12.1,0C7.4,11.4,7.4,15.4,7.4,19.5z"/>
	<path d="M95.1,4.9c0,5.7,0,11.3,0,17c-5.7,0-11.3,0-17,0c0-5.7,0-11.3,0-17C83.7,4.9,89.4,4.9,95.1,4.9z M92.6,19.5
		c0-4.1,0-8.1,0-12.1c-4.1,0-8.1,0-12.1,0c0,4.1,0,8.1,0,12.1C84.5,19.5,88.6,19.5,92.6,19.5z"/>
	<path d="M90.2,61c0.8,0,1.6,0,2.4,0c0-1.6,0-3.2,0-4.9c-0.8,0-1.6,0-2.4,0c0-0.8,0-1.6,0-2.4c1.6,0,3.2,0,4.8,0
		c0,8.9,0,17.8,0,26.7c-2.4,0-4.8,0-7.3,0c0-0.8,0-1.6,0-2.4l0,0c1.6,0,3.2,0,4.8,0c0-0.8,0-1.6,0-2.5c-0.8,0-1.6,0-2.4,0
		c0-1.7,0-3.3,0-4.9c0.8,0,1.6,0,2.4,0c0-0.8,0-1.6,0-2.4c-0.8,0-1.6,0-2.4,0C90.2,65.8,90.2,63.4,90.2,61L90.2,61z"/>
	<path d="M24.4,58.5c0-2.4,0-4.8,0-7.3c-2.4,0-4.9,0-7.3,0c0,1.6,0,3.2,0,4.8c-0.8,0-1.6,0-2.4,0c0-3.2,0-6.4,0-9.7
		c0.8,0,1.6,0,2.4,0c0,0,0,0,0,0c0,0.8,0,1.6,0,2.4c1.7,0,3.3,0,4.9,0c0-0.8,0-1.6,0-2.4l0,0c0.8,0,1.6,0,2.4,0c0,0.8,0,1.6,0,2.4
		c0.9,0,1.7,0,2.5,0l0,0c0,0.8,0,1.6,0,2.4c1.6,0,3.2,0,4.9,0c0-0.8,0-1.6,0-2.4c1.6,0,3.2,0,4.8,0c0,0.8,0,1.6,0,2.4
		c-0.8,0-1.6,0-2.4,0c0,1.7,0,3.3,0,4.9l0,0c-1.6,0-3.2,0-4.9,0c0-0.8,0-1.6,0-2.4c-0.8,0-1.6,0-2.4,0c0,1.6,0,3.2,0,4.8l0,0
		C26,58.5,25.2,58.5,24.4,58.5L24.4,58.5z"/>
	<path d="M7.4,41.5c0-1.6,0-3.2,0-4.9c-0.8,0-1.6,0-2.4,0c0-4.1,0-8.1,0-12.2c4,0,8.1,0,12.1,0c0,0.8,0,1.6,0,2.4
		c-0.8,0-1.6,0-2.4,0c0,1.7,0,3.3,0,4.9l0,0c-1.6,0-3.2,0-4.9,0c0-0.9,0-1.6,0-2.4c0.8,0,1.6,0,2.4,0c0-0.8,0-1.6,0-2.4
		c-0.8,0-1.6,0-2.4,0c0,0.8,0,1.6,0,2.4c-0.8,0-1.6,0-2.4,0c0,1.6,0,3.2,0,4.9c0.8,0,1.6,0,2.4,0c0,2.5,0,4.9,0,7.3l0,0
		C9,41.5,8.2,41.5,7.4,41.5L7.4,41.5z"/>
	<path d="M61,7.4c3.2,0,6.5,0,9.7,0c0-0.8,0-1.6,0-2.4c0.8,0,1.6,0,2.4,0c0,1.6,0,3.2,0,4.8c0.8,0,1.6,0,2.4,0c0,2.5,0,4.9,0,7.3
		c-0.8,0-1.6,0-2.4,0c0-0.8,0-1.6,0-2.4c-0.9,0-1.7,0-2.5,0c0,0,0,0,0,0c0-1.6,0-3.2,0-4.8c-0.9,0-1.6,0-2.5,0c0,1.6,0,3.2,0,4.8
		l0,0c-0.8,0-1.6,0-2.5,0c0-1.7,0-3.2,0-4.8c-0.8,0-1.6,0-2.4,0c0,0.8,0,1.6,0,2.4c-0.8,0-1.6,0-2.4,0C61,10.6,61,8.9,61,7.4L61,7.4
		z"/>
	<path d="M7.4,56.1c-0.8,0-1.6,0-2.4,0c0-1.6,0-3.2,0-4.9c0.8,0,1.6,0,2.4,0c0-2.5,0-4.9,0-7.3l0,0c0.8,0,1.6,0,2.5,0
		c0-0.9,0-1.7,0-2.5l0,0c0.8,0,1.6,0,2.5,0c0-2.5,0-4.9,0-7.3c0.8,0,1.6,0,2.4,0l0,0c0,3.2,0,6.5,0,9.7c-0.8,0-1.6,0-2.4,0
		c0,0.8,0,1.6,0,2.4c-0.8,0-1.6,0-2.4,0c0,1.6,0,3.2,0,4.9c0.8,0,1.6,0,2.4,0c0,0.8,0,1.6,0,2.4c-1.6,0-3.2,0-4.9,0
		C7.3,54.5,7.3,55.3,7.4,56.1L7.4,56.1z"/>
	<path d="M7.3,56.1c1.6,0,3.2,0,4.9,0c0,1.6,0,3.2,0,4.8c0.8,0,1.6,0,2.4,0c0,0.8,0,1.6,0,2.4c-1.6,0-3.2,0-4.8,0c0-0.8,0-1.5,0-2.4
		c-0.8,0-1.6,0-2.4,0c0,4.8,0,9.7,0,14.6c-0.8,0-1.6,0-2.4,0c0-5.7,0-11.3,0-17c0.8,0,1.6,0,2.4,0C7.4,57.7,7.4,56.9,7.3,56.1
		C7.4,56.1,7.3,56.1,7.3,56.1z"/>
	<path d="M41.5,53.7c0.8,0,1.6,0,2.4,0c0-0.8,0-1.6,0-2.4c0.8,0,1.6,0,2.5,0c0-0.9,0-1.7,0-2.5l0,0c0.8,0,1.6,0,2.5,0
		c0,0.8,0,1.6,0,2.4c0.8,0,1.6,0,2.4,0c0-1.6,0-3.2,0-4.8c2.5,0,4.9,0,7.3,0c0,0.8,0,1.6,0,2.4c-1.6,0-3.2,0-4.9,0
		c0,1.7,0,3.3,0,4.9l0,0c-2.4,0-4.9,0-7.3,0c0,1.7,0,3.3,0,4.9c-0.8,0-1.6,0-2.5,0c0-0.9,0-1.6,0-2.5c-0.8,0-1.6,0-2.4,0l0,0
		C41.5,55.3,41.5,54.5,41.5,53.7L41.5,53.7z"/>
	<path d="M17.1,31.7c0-0.8,0-1.6,0-2.4c1.6,0,3.2,0,4.8,0c0-0.8,0-1.6,0-2.4c-0.8,0-1.6,0-2.4,0c0-0.8,0-1.6,0-2.4c4,0,8.1,0,12.1,0
		c0,0.8,0,1.6,0,2.4c-2.4,0-4.8,0-7.2,0c0,0.8,0,1.6,0,2.4c0.8,0,1.6,0,2.4,0c0,1.7,0,3.3,0,4.9l0,0c-1.6,0-3.3,0-4.9,0l0,0
		c0-0.8,0-1.6,0-2.5C20.3,31.7,18.7,31.7,17.1,31.7L17.1,31.7z"/>
	<path d="M34.1,14.7c1.2,0,2.4,0,3.6,0c2.1,0,4.1,0,6.2,0c0,0,0,0,0,0c0,0.8,0,1.6,0,2.5c1.7,0,3.3,0,4.9,0c0,0.8,0,1.6,0,2.4l0,0
		c-0.8,0-1.6,0-2.5,0c0,0.9,0,1.7,0,2.5l0,0c-0.8,0-1.6,0-2.5,0l0,0c0-0.8,0-1.6,0-2.4c-0.9,0-1.6,0-2.5,0c0,0.8,0,1.6,0,2.4l0,0
		c-0.8,0-1.6,0-2.5,0l0,0c0-0.8,0-1.6,0-2.5c-0.9,0-1.7,0-2.5,0l0,0c0-0.8,0-1.6,0-2.4c-0.8,0-1.6,0-2.5,0
		C34.1,16.3,34.1,15.5,34.1,14.7C34.1,14.7,34.1,14.7,34.1,14.7z"/>
	<path d="M29.3,14.7c-1.6,0-3.2,0-4.8,0c0-0.8,0-1.6,0-2.4c0.8,0,1.6,0,2.4,0c0-0.8,0-1.6,0-2.4c-0.8,0-1.6,0-2.4,0
		c0-0.8,0-1.6,0-2.4c0.8,0,1.6,0,2.4,0c0-0.8,0-1.6,0-2.4c0.8,0,1.6,0,2.4,0c0,1.6,0,3.2,0,4.8c0.8,0,1.6,0,2.5,0c0-0.8,0-1.6,0-2.4
		c1.6,0,3.2,0,4.8,0c0,0.8,0,1.6,0,2.4c-0.8,0-1.6,0-2.4,0c0,1.7,0,3.3,0,4.9c0,0,0,0,0,0c-0.8,0-1.6,0-2.4,0l0,0c0-0.8,0-1.6,0-2.4
		c-0.9,0-1.6,0-2.5,0C29.3,13.1,29.3,13.9,29.3,14.7L29.3,14.7z"/>
	<path d="M46.3,7.4c0.8,0,1.6,0,2.4,0l0,0c0,0.8,0,1.6,0,2.4c0.9,0,1.6,0,2.5,0c0-0.8,0-1.6,0-2.4l0,0c0.8,0,1.6,0,2.5,0l0,0
		c0,0.8,0,1.6,0,2.5c0.9,0,1.7,0,2.5,0l0,0c0,1.6,0,3.3,0,4.9l0,0c-0.8,0-1.6,0-2.5,0c0-0.8,0-1.6,0-2.4c-0.8,0-1.6,0-2.4,0
		c0,0.8,0,1.6,0,2.4c-0.8,0-1.6,0-2.5,0c0-0.8,0-1.6,0-2.4c-0.8,0-1.6,0-2.4,0c0,0.8,0,1.6,0,2.4c-0.8,0-1.6,0-2.4,0c0,0,0,0,0,0
		c0-1.6,0-3.2,0-4.9c0.8,0,1.6,0,2.4,0C46.4,9,46.4,8.1,46.3,7.4L46.3,7.4z"/>
	<path d="M34.2,56.1c2.4,0,4.9,0,7.3,0l0,0c0,1.6,0,3.2,0,4.9c-0.8,0-1.6,0-2.4,0c0,0.8,0,1.6,0,2.4c-0.8,0-1.6,0-2.5,0
		c0,0.8,0,1.6,0,2.4c-0.8,0-1.6,0-2.4,0c0-1.6,0-3.2,0-4.9c0.8,0,1.6,0,2.4,0c0-0.8,0-1.6,0-2.4c-0.8,0-1.6,0-2.4,0
		C34.2,57.7,34.2,56.9,34.2,56.1L34.2,56.1z"/>
	<path d="M39,82.9c-0.8,0-1.6,0-2.4,0c0,0.8,0,1.6,0,2.4c-0.8,0-1.6,0-2.4,0c0-1.6,0-3.2,0-4.8c0.8,0,1.6,0,2.4,0c0-0.8,0-1.6,0-2.4
		c-0.8,0-1.6,0-2.4,0c0-0.9,0-1.7,0-2.5c0,0,0,0,0,0c2.4,0,4.9,0,7.3,0l0,0c0,1.6,0,3.2,0,4.9c-0.8,0-1.6,0-2.4,0
		C39,81.3,39,82.1,39,82.9L39,82.9z"/>
	<path d="M22,34.2c0,0.8,0,1.6,0,2.5c-0.8,0-1.6,0-2.4,0c0,0.8,0,1.6,0,2.4c0.8,0,1.6,0,2.4,0c0-0.8,0-1.6,0-2.4c0.8,0,1.6,0,2.4,0
		c0,2.4,0,4.8,0,7.3c-0.8,0-1.6,0-2.4,0l0,0c0-0.8,0-1.6,0-2.4c-1.6,0-3.2,0-4.9,0c0-2.5,0-4.9,0-7.3c0,0,0,0,0,0
		C18.7,34.2,20.4,34.2,22,34.2L22,34.2z"/>
	<path d="M78,26.9c0.8,0,1.6,0,2.5,0l0,0c0,0.8,0,1.6,0,2.4c4.1,0,8.1,0,12.2,0c0,0.8,0,1.6,0,2.4c-4.9,0-9.7,0-14.6,0l0,0
		C78,30.1,78,28.5,78,26.9C78,26.8,78,26.9,78,26.9z"/>
	<path d="M73.1,36.6c2.4,0,4.9,0,7.3,0l0,0c0,0.8,0,1.6,0,2.5c1.7,0,3.3,0,4.9,0l0,0c0,0.8,0,1.6,0,2.5l0,0c-1.6,0-3.2,0-4.9,0
		c0,0.9,0,1.7,0,2.5c-0.8,0-1.6,0-2.5,0c0-1.7,0-3.3,0-4.9c-1.6,0-3.2,0-4.9,0C73.2,38.2,73.2,37.4,73.1,36.6L73.1,36.6z"/>
	<path d="M48.8,87.8c0,0.8,0,1.6,0,2.4c0,0,0,0,0,0c-0.8,0-1.6,0-2.4,0c0,1.6,0,3.2,0,4.8c-1.6,0-3.2,0-4.9,0c0-0.8,0-1.6,0-2.4l0,0
		c0.8,0,1.6,0,2.4,0c0-0.9,0-1.6,0-2.5c-0.8,0-1.6,0-2.4,0l0,0c0-0.8,0-1.6,0-2.4C43.9,87.8,46.4,87.8,48.8,87.8
		C48.8,87.8,48.8,87.8,48.8,87.8z"/>
	<path d="M46.4,29.3c-1.6,0-3.2,0-4.9,0c0-0.8,0-1.6,0-2.4c-0.8,0-1.6,0-2.5,0c0-0.9,0-1.7,0-2.5l0,0c0.8,0,1.6,0,2.5,0
		c0-0.9,0-1.7,0-2.5l0,0c0.8,0,1.6,0,2.5,0l0,0c0,1.6,0,3.2,0,4.9c0.9,0,1.6,0,2.4,0C46.3,27.7,46.3,28.5,46.4,29.3L46.4,29.3z"/>
	<path d="M39,24.4c-0.8,0-1.6,0-2.4,0c0,0.8,0,1.6,0,2.4c-0.8,0-1.6,0-2.4,0c0-2.4,0-4.8,0-7.3c0.8,0,1.6,0,2.4,0c0,0,0,0,0,0
		c0,0.8,0,1.6,0,2.5c0.9,0,1.7,0,2.5,0l0,0C39,22.8,39,23.6,39,24.4L39,24.4z"/>
	<path d="M34.2,36.6c-0.8,0-1.6,0-2.4,0c0-2.4,0-4.8,0-7.3c1.6,0,3.2,0,4.8,0c0,0.8,0,1.6,0,2.4c-0.8,0-1.6,0-2.4,0
		C34.2,33.4,34.2,35,34.2,36.6C34.2,36.6,34.2,36.6,34.2,36.6z"/>
	<path d="M53.7,7.4c0-0.8,0-1.6,0-2.4c2.4,0,4.8,0,7.3,0c0,0.8,0,1.6,0,2.4c0,0,0,0,0,0c-0.8,0-1.6,0-2.5,0c0,0.9,0,1.6,0,2.4
		c-0.8,0-1.6,0-2.4,0l0,0c0-0.8,0-1.6,0-2.5C55.2,7.3,54.4,7.3,53.7,7.4L53.7,7.4z"/>
	<path d="M19.5,63.4c-0.8,0-1.6,0-2.4,0c0-1.6,0-3.2,0-4.9c2.4,0,4.9,0,7.3,0c0,0,0,0,0,0c0,0.8,0,1.6,0,2.5c-1.7,0-3.2,0-4.9,0
		C19.5,61.8,19.5,62.6,19.5,63.4L19.5,63.4z"/>
	<path d="M75.6,92.6c0,0.8,0,1.6,0,2.4c-2.4,0-4.8,0-7.3,0c0-0.8,0-1.6,0-2.4l0,0C70.7,92.7,73.2,92.7,75.6,92.6L75.6,92.6z"/>
	<path d="M92.6,90.2c0,0.8,0,1.6,0,2.4c0.8,0,1.6,0,2.4,0c0,0.8,0,1.6,0,2.4c-1.6,0-3.2,0-4.8,0c0-1.6,0-3.2,0-4.8l0,0
		C91,90.2,91.8,90.2,92.6,90.2L92.6,90.2z"/>
	<path d="M90.2,85.3c1.6,0,3.2,0,4.8,0c0,1.6,0,3.2,0,4.9c-0.8,0-1.6,0-2.4,0c0,0,0,0,0,0c0-0.8,0-1.6,0-2.5c-0.9,0-1.7,0-2.5,0l0,0
		C90.2,87,90.2,86.1,90.2,85.3L90.2,85.3z"/>
	<path d="M31.7,14.7c0,2.4,0,4.8,0,7.3c-0.8,0-1.6,0-2.4,0c0-2.4,0-4.9,0-7.3c0,0,0,0,0,0C30.1,14.7,30.9,14.7,31.7,14.7L31.7,14.7z
		"/>
	<path d="M26.8,21.9c-0.8,0-1.6,0-2.4,0c0-1.6,0-3.2,0-4.8c0.8,0,1.6,0,2.4,0C26.8,18.7,26.8,20.3,26.8,21.9z"/>
	<path d="M19.5,65.8c0-0.8,0-1.6,0-2.5c0,0,0,0,0,0c1.6,0,3.2,0,4.8,0c0,0.8,0,1.6,0,2.4C22.7,65.8,21.1,65.8,19.5,65.8L19.5,65.8z"
		/>
	<path d="M39,82.9c1.6,0,3.2,0,4.8,0c0,0.8,0,1.6,0,2.4c-1.6,0-3.2,0-4.8,0C39,84.5,39,83.7,39,82.9C39,82.9,39,82.9,39,82.9z"/>
	<path d="M73.2,24.4c0-1.6,0-3.2,0-4.8c0.8,0,1.6,0,2.4,0c0,1.6,0,3.2,0,4.8l0,0C74.8,24.4,74,24.4,73.2,24.4L73.2,24.4z"/>
	<path d="M48.8,90.2c1.6,0,3.2,0,4.8,0c0,0.8,0,1.6,0,2.4c-1.6,0-3.2,0-4.8,0C48.8,91.8,48.8,91,48.8,90.2
		C48.8,90.2,48.8,90.2,48.8,90.2z"/>
	<path d="M58.6,90.2c1.6,0,3.2,0,4.8,0c0,0.8,0,1.6,0,2.4c-1.6,0-3.2,0-4.8,0C58.6,91.8,58.6,91.1,58.6,90.2z"/>
	<path d="M46.4,7.3c-1.6,0-3.2,0-4.8,0c0-0.8,0-1.6,0-2.4c1.6,0,3.2,0,4.8,0C46.3,5.8,46.3,6.6,46.4,7.3C46.3,7.4,46.4,7.3,46.4,7.3
		z"/>
	<path d="M78,31.7c0,0.8,0,1.6,0,2.4c-1.6,0-3.3,0-4.9,0l0,0c0-0.8,0-1.6,0-2.5l0,0C74.8,31.7,76.4,31.7,78,31.7L78,31.7z"/>
	<path d="M22,43.9c0,0.8,0,1.6,0,2.5c0,0,0,0,0,0c-1.6,0-3.3,0-4.9,0c0,0,0,0,0,0c0-0.8,0-1.6,0-2.4C18.7,43.9,20.4,43.9,22,43.9
		C22,43.9,22,43.9,22,43.9z"/>
	<path d="M73.2,29.3c0-0.8,0-1.6,0-2.5l0,0c0.8,0,1.6,0,2.5,0l0,0c0,0.8,0,1.6,0,2.4C74.7,29.3,73.9,29.3,73.2,29.3L73.2,29.3z"/>
	<path d="M26.9,48.8c0-0.8,0-1.6,0-2.4c0.8,0,1.6,0,2.4,0c0,0.8,0,1.6,0,2.4C28.4,48.8,27.6,48.8,26.9,48.8
		C26.8,48.8,26.9,48.8,26.9,48.8z"/>
	<path d="M31.7,43.9c-0.8,0-1.6,0-2.4,0c0-0.8,0-1.6,0-2.4c0.8,0,1.6,0,2.4,0C31.7,42.3,31.7,43.1,31.7,43.9z"/>
	<path d="M90.2,24.4c0.8,0,1.6,0,2.4,0c0,0.8,0,1.6,0,2.4c-0.8,0-1.6,0-2.4,0C90.2,26,90.2,25.3,90.2,24.4z"/>
	<path d="M41.5,53.6c-0.8,0-1.6,0-2.4,0c0-0.8,0-1.6,0-2.4c0.8,0,1.6,0,2.4,0C41.5,52.1,41.5,52.9,41.5,53.6
		C41.5,53.7,41.5,53.6,41.5,53.6z"/>
	<path d="M85.4,24.4c0.8,0,1.6,0,2.4,0c0,0.8,0,1.6,0,2.4c-0.8,0-1.6,0-2.4,0C85.4,26,85.4,25.3,85.4,24.4z"/>
	<path d="M22,53.7c0,0.8,0,1.6,0,2.4c-0.8,0-1.6,0-2.4,0c0-0.8,0-1.6,0-2.4C20.4,53.7,21.1,53.7,22,53.7z"/>
	<path d="M80.5,26.9c0-0.8,0-1.6,0-2.4c0.8,0,1.6,0,2.4,0c0,0.8,0,1.6,0,2.4C82.1,26.8,81.3,26.8,80.5,26.9
		C80.5,26.8,80.5,26.9,80.5,26.9z"/>
	<path d="M75.6,24.4c0.8,0,1.6,0,2.4,0c0,0.8,0,1.6,0,2.4c0,0,0,0,0,0c-0.8,0-1.6,0-2.5,0l0,0C75.6,26,75.6,25.2,75.6,24.4
		L75.6,24.4z"/>
	<path d="M73.2,26.8c-0.8,0-1.6,0-2.4,0c0-0.8,0-1.6,0-2.4c0.8,0,1.6,0,2.4,0l0,0C73.1,25.2,73.1,26,73.2,26.8L73.2,26.8z"/>
	<path d="M68.3,22c0,0.8,0,1.6,0,2.4c-0.8,0-1.6,0-2.4,0c0-0.8,0-1.6,0-2.4c0,0,0,0,0,0C66.7,22,67.5,22,68.3,22L68.3,22z"/>
	<path d="M7.4,43.9c-0.8,0-1.6,0-2.4,0c0-0.8,0-1.6,0-2.4c0.8,0,1.6,0,2.4,0c0,0,0,0,0,0C7.3,42.3,7.3,43.1,7.4,43.9L7.4,43.9z"/>
	<path d="M87.8,58.5c0.8,0,1.6,0,2.4,0c0,0.8,0,1.6,0,2.4l0,0c-0.8,0-1.6,0-2.5,0C87.8,60.2,87.8,59.3,87.8,58.5L87.8,58.5z"/>
	<path d="M85.3,39c0-0.8,0-1.6,0-2.4c0.8,0,1.6,0,2.4,0c0,0.8,0,1.6,0,2.4l0,0C87,39,86.1,39,85.3,39L85.3,39z"/>
	<path d="M48.8,68.3c0,0.8,0,1.6,0,2.4c-0.8,0-1.6,0-2.4,0l0,0c0-0.8,0-1.6,0-2.4C47.2,68.3,48,68.3,48.8,68.3L48.8,68.3z"/>
	<path d="M14.7,31.7c0.8,0,1.6,0,2.5,0c0,0,0,0,0,0c0,0.8,0,1.6,0,2.5c0,0,0,0,0,0c-0.8,0-1.6,0-2.5,0c0,0,0,0,0,0
		C14.7,33.3,14.7,32.5,14.7,31.7L14.7,31.7z"/>
	<path d="M46.3,70.7c0,0.8,0,1.6,0,2.4c-0.8,0-1.6,0-2.4,0c0,0,0,0,0,0c0-0.8,0-1.6,0-2.5C44.7,70.7,45.5,70.7,46.3,70.7L46.3,70.7z
		"/>
	<path d="M14.6,75.6c-0.8,0-1.6,0-2.4,0c0-0.8,0-1.6,0-2.4c0.8,0,1.6,0,2.4,0C14.6,74,14.6,74.7,14.6,75.6z"/>
	<path d="M43.9,75.6c-0.8,0-1.6,0-2.5,0c0,0,0,0,0,0c0-0.8,0-1.6,0-2.5c0.8,0,1.6,0,2.5,0c0,0,0,0,0,0C43.9,74,43.9,74.8,43.9,75.6
		C43.9,75.6,43.9,75.6,43.9,75.6z"/>
	<path d="M41.4,34.1c-0.8,0-1.6,0-2.4,0c0-0.8,0-1.6,0-2.4c0.8,0,1.6,0,2.4,0C41.4,32.5,41.4,33.3,41.4,34.1z"/>
	<path d="M43.9,75.6c0.8,0,1.6,0,2.4,0c0,0.8,0,1.6,0,2.4l0,0c-0.8,0-1.6,0-2.4,0C43.9,77.2,43.9,76.4,43.9,75.6
		C43.9,75.6,43.9,75.6,43.9,75.6z"/>
	<path d="M46.3,78c0.8,0,1.6,0,2.4,0c0,0.8,0,1.6,0,2.4c-0.8,0-1.6,0-2.4,0C46.4,79.6,46.4,78.8,46.3,78C46.4,78,46.3,78,46.3,78z"
		/>
	<path d="M46.4,34.2c-0.8,0-1.6,0-2.4,0c0-0.8,0-1.6,0-2.4c0.8,0,1.6,0,2.4,0l0,0C46.3,32.5,46.3,33.3,46.4,34.2L46.4,34.2z"/>
	<path d="M63.4,82.9c-0.8,0-1.6,0-2.5,0c0,0,0,0,0,0c0-0.8,0-1.6,0-2.5c0.8,0,1.6,0,2.4,0C63.4,81.3,63.4,82.1,63.4,82.9L63.4,82.9z
		"/>
	<path d="M80.5,36.6c0-0.8,0-1.6,0-2.4c0.8,0,1.6,0,2.4,0c0,0.8,0,1.6,0,2.4C82.1,36.6,81.3,36.6,80.5,36.6
		C80.5,36.6,80.5,36.6,80.5,36.6z"/>
	<path d="M41.5,9.8c0,0.8,0,1.6,0,2.4c-0.8,0-1.6,0-2.4,0c0-0.8,0-1.6,0-2.4C39.8,9.8,40.6,9.8,41.5,9.8z"/>
	<path d="M73.1,34.2c0,0.8,0,1.6,0,2.5l0,0c-0.8,0-1.6,0-2.5,0l0,0c0-0.8,0-1.6,0-2.4C71.6,34.2,72.4,34.2,73.1,34.2L73.1,34.2z"/>
	<path d="M87.8,85.3c0-0.8,0-1.6,0-2.4c0.8,0,1.6,0,2.4,0c0,0.8,0,1.6,0,2.4l0,0C89.4,85.3,88.6,85.3,87.8,85.3L87.8,85.3z"/>
	<path d="M48.8,87.8c0-0.8,0-1.6,0-2.4c0.8,0,1.6,0,2.4,0c0,0.8,0,1.6,0,2.4C50.4,87.8,49.6,87.8,48.8,87.8
		C48.8,87.8,48.8,87.8,48.8,87.8z"/>
	<path d="M85.3,85.3c0.8,0,1.6,0,2.5,0l0,0c0,0.8,0,1.6,0,2.5l0,0c-0.8,0-1.6,0-2.4,0C85.3,86.9,85.3,86.1,85.3,85.3L85.3,85.3z"/>
	<path d="M48.8,7.4c0-0.8,0-1.6,0-2.4c0.8,0,1.6,0,2.4,0c0,0.8,0,1.6,0,2.4c0,0,0,0,0,0C50.4,7.3,49.6,7.3,48.8,7.4L48.8,7.4z"/>
	<path d="M90.2,90.2c-0.8,0-1.6,0-2.5,0c0,0,0,0,0,0c0-0.8,0-1.6,0-2.5l0,0c0.8,0,1.6,0,2.5,0l0,0C90.2,88.6,90.2,89.4,90.2,90.2
		L90.2,90.2z"/>
	<path d="M41.5,92.6c-0.8,0-1.6,0-2.4,0c0-0.8,0-1.6,0-2.4c0.8,0,1.6,0,2.4,0l0,0C41.5,91,41.5,91.8,41.5,92.6L41.5,92.6z"/>
	<path d="M26.8,34.2c0.8,0,1.6,0,2.4,0c0,0.8,0,1.6,0,2.4c-0.8,0-1.6,0-2.4,0C26.9,35.8,26.9,35,26.8,34.2
		C26.9,34.2,26.8,34.2,26.8,34.2z"/>
	<path d="M46.4,31.7c0-0.8,0-1.6,0-2.5c0,0,0,0,0,0c0.8,0,1.6,0,2.5,0c0,0.8,0,1.6,0,2.5c0,0,0,0,0,0C48,31.7,47.2,31.7,46.4,31.7
		L46.4,31.7z"/>
	<path d="M85.3,70.7c-4,0-8.1,0-12.2,0c0-0.8,0-1.6,0-2.4c0.8,0,1.6,0,2.4,0c0-1.6,0-3.2,0-4.8c0.8,0,1.6,0,2.4,0c0,0.8,0,1.6,0,2.4
		c1.6,0,3.2,0,4.9,0c0,0.8,0,1.6,0,2.5c0.9,0,1.7,0,2.5,0l0,0C85.3,69.1,85.3,69.9,85.3,70.7L85.3,70.7z"/>
	<path d="M63.4,61c0-0.8,0-1.6,0-2.4c1.6,0,3.2,0,4.9,0c0-0.8,0-1.6,0-2.4c0.8,0,1.6,0,2.4,0c0-0.8,0-1.6,0-2.5c0.9,0,1.7,0,2.5,0
		c0,2.4,0,4.8,0,7.3c-1.6,0-3.2,0-4.9,0c0,0.9,0,1.7,0,2.5l0,0c-0.8,0-1.6,0-2.4,0l0,0c0-0.8,0-1.6,0-2.5C65,61,64.2,61,63.4,61
		L63.4,61z"/>
	<path d="M87.8,61c0,2.4,0,4.9,0,7.3l0,0c-0.8,0-1.6,0-2.5,0l0,0c0-2.4,0-4.9,0-7.3C86.1,61,87,61,87.8,61z"/>
	<path d="M65.9,70.7c0-0.8,0-1.6,0-2.4c1.6,0,3.2,0,4.8,0c0,0.8,0,1.6,0,2.4C69.1,70.7,67.5,70.7,65.9,70.7z"/>
	<path d="M68.3,63.4c1.6,0,3.2,0,4.8,0c0,0.8,0,1.6,0,2.4c-1.6,0-3.2,0-4.8,0C68.3,65,68.3,64.2,68.3,63.4
		C68.3,63.4,68.3,63.4,68.3,63.4z"/>
	<path d="M75.6,51.2c0,0.8,0,1.6,0,2.5c-0.8,0-1.6,0-2.5,0c0-0.8,0-1.6,0-2.5C74,51.2,74.8,51.2,75.6,51.2z"/>
	<path d="M61,61c0.8,0,1.6,0,2.5,0c0,0,0,0,0,0c0,0.8,0,1.6,0,2.5l0,0c-0.8,0-1.6,0-2.5,0C61,62.6,61,61.8,61,61z"/>
	<path d="M65.8,63.4c0,0.8,0,1.6,0,2.4c-0.8,0-1.6,0-2.4,0c0-0.8,0-1.6,0-2.4l0,0C64.2,63.4,65,63.4,65.8,63.4L65.8,63.4z"/>
	<path d="M87.8,70.7c0,0.8,0,1.6,0,2.5c-0.8,0-1.6,0-2.4,0c0-0.8,0-1.6,0-2.5l0,0C86.1,70.7,87,70.7,87.8,70.7L87.8,70.7z"/>
	<path d="M68.3,75.6c-0.8,0-1.6,0-2.4,0c0-0.8,0-1.6,0-2.4c0.8,0,1.6,0,2.4,0C68.3,74,68.3,74.8,68.3,75.6
		C68.3,75.6,68.3,75.6,68.3,75.6z"/>
	<path d="M61,80.5c-0.8,0-1.6,0-2.5,0c0-0.8,0-1.6,0-2.5c0.8,0,1.6,0,2.5,0C61,78.9,61,79.7,61,80.5z"/>
	<path d="M80.4,78.1c0,0.8,0,1.6,0,2.4c-0.8,0-1.6,0-2.4,0c0-0.8,0-1.6,0-2.4C78.8,78.1,79.6,78.1,80.4,78.1z"/>
	<path d="M90.2,68.3c0,0.8,0,1.6,0,2.5c-0.8,0-1.6,0-2.5,0c0,0,0,0,0,0c0-0.8,0-1.6,0-2.5c0,0,0,0,0,0
		C88.6,68.3,89.4,68.3,90.2,68.3z"/>
	<path d="M39,63.4c1.6,0,3.2,0,4.9,0c0-0.8,0-1.6,0-2.4c0.9,0,1.7,0,2.5,0c0,1.6,0,3.2,0,4.8c-2.4,0-4.8,0-7.3,0
		C39,65,39,64.2,39,63.4z"/>
	<path d="M26.8,58.5c0.8,0,1.6,0,2.4,0c0,0.8,0,1.6,0,2.4c-0.8,0-1.6,0-2.4,0C26.9,60.1,26.9,59.3,26.8,58.5
		C26.9,58.5,26.8,58.5,26.8,58.5z"/>
	<path d="M46.3,61c0-0.8,0-1.6,0-2.5c0.8,0,1.6,0,2.4,0c0,0.8,0,1.6,0,2.5C47.9,61,47.1,61,46.3,61z"/>
	<path d="M29.3,65.8c-0.8,0-1.6,0-2.4,0c0-0.8,0-1.6,0-2.4c0.8,0,1.6,0,2.4,0C29.3,64.2,29.3,65,29.3,65.8
		C29.3,65.8,29.3,65.8,29.3,65.8z"/>
	<path d="M43.9,70.7c-0.8,0-1.6,0-2.5,0c0-0.8,0-1.6,0-2.4c0.8,0,1.6,0,2.5,0C43.9,69.1,43.9,69.9,43.9,70.7z"/>
	<path d="M41.5,70.7c0,0.8,0,1.6,0,2.5c-0.8,0-1.6,0-2.4,0c0-0.8,0-1.6,0-2.5C39.9,70.7,40.7,70.7,41.5,70.7z"/>
	<path d="M70.7,48.8c0-0.8,0-1.6,0-2.4c-0.8,0-1.6,0-2.4,0c0-0.9,0-1.7,0-2.5c1.6,0,3.2,0,4.9,0c0-0.8,0-1.6,0-2.4
		c0.8,0,1.6,0,2.4,0c0,1.6,0,3.2,0,4.8c-0.8,0-1.6,0-2.4,0c0,0.8,0,1.6,0,2.5C72.3,48.8,71.5,48.8,70.7,48.8z"/>
	<path d="M58.5,48.8c0.8,0,1.6,0,2.5,0c0,0.8,0,1.6,0,2.4c0.8,0,1.6,0,2.4,0c0,0.8,0,1.6,0,2.5c-2.4,0-4.9,0-7.3,0
		c0-0.8,0-1.6,0-2.4c0.8,0,1.6,0,2.4,0C58.5,50.4,58.5,49.6,58.5,48.8z"/>
	<path d="M65.8,48.8c1.6,0,3.3,0,4.9,0c0,0.8,0,1.6,0,2.4c-0.8,0-1.6,0-2.4,0c0,0.8,0,1.6,0,2.4c-0.8,0-1.6,0-2.5,0
		C65.8,52,65.8,50.4,65.8,48.8z"/>
	<path d="M80.5,43.9c0.8,0,1.6,0,2.5,0c0,0.8,0,1.6,0,2.5c-0.8,0-1.6,0-2.5,0C80.5,45.5,80.5,44.7,80.5,43.9z"/>
	<path d="M51.2,29.3c-0.8,0-1.6,0-2.5,0c0-0.8,0-1.6,0-2.4c0.8,0,1.6,0,2.5,0C51.2,27.7,51.2,28.5,51.2,29.3z"/>
	<path d="M63.4,34.2c-0.8,0-1.6,0-2.5,0c0-0.8,0-1.6,0-2.5c0.8,0,1.6,0,2.5,0C63.4,32.5,63.4,33.3,63.4,34.2z"/>
	<path d="M63.4,36.6c0-0.8,0-1.6,0-2.5c0.8,0,1.6,0,2.4,0c0,0.8,0,1.6,0,2.5C65,36.6,64.2,36.6,63.4,36.6z"/>
	<path d="M17.1,82.9c0,2.4,0,4.8,0,7.2c-2.4,0-4.8,0-7.2,0c0-2.4,0-4.8,0-7.2C12.2,82.9,14.6,82.9,17.1,82.9z"/>
	<path d="M9.8,17.1c0-2.4,0-4.8,0-7.2c2.4,0,4.8,0,7.3,0c0,2.4,0,4.8,0,7.2C14.7,17.1,12.2,17.1,9.8,17.1z"/>
	<path d="M90.2,17.1c-2.4,0-4.8,0-7.2,0c0-2.4,0-4.8,0-7.2c2.4,0,4.8,0,7.2,0C90.2,12.2,90.2,14.6,90.2,17.1z"/>
</g>
</svg>
